<?xml version="1.0" encoding="UTF-8"?>
<svg width="32px" height="32px" viewBox="0 0 32 32" version="1.1" xmlns="http://www.w3.org/2000/svg" xmlns:xlink="http://www.w3.org/1999/xlink">
    <!-- Generator: Sketch 48.2 (47327) - http://www.bohemiancoding.com/sketch -->
    <title>icon-lunch-break</title>
    <desc>Created with Sketch.</desc>
    <defs></defs>
    <g id="EMS" stroke="none" stroke-width="1" fill="none" fill-rule="evenodd" transform="translate(-856.000000, -139.000000)">
        <g id="tab" transform="translate(261.000000, 123.000000)" fill="#252525" fill-rule="nonzero">
            <g id="icon-lunch-break" transform="translate(595.000000, 16.000000)">
                <path d="M17.695125,6.1279375 C17.69275,5.322 17.899375,4.9405625 18.138625,4.4988125 C18.4058125,4.0056875 18.7085,3.4466875 18.705375,2.38025 C18.7021875,1.3138125 18.3960625,0.7566875 18.1259375,0.265125 C17.9901875,0.0180625 17.6796875,-0.072375 17.4325,0.0635 C17.1853125,0.19925 17.095,0.50975 17.2308125,0.7569375 C17.47275,1.1971875 17.681625,1.5774375 17.684,2.383375 C17.686375,3.1893125 17.47975,3.57075 17.2405,4.0125 C16.9734375,4.505625 16.67075,5.064625 16.6738125,6.1310625 C16.677,7.1975625 16.9830625,7.7546875 17.2530625,8.246125 C17.346,8.4153125 17.52075,8.511 17.7010625,8.511 C17.7841875,8.511 17.8685,8.490625 17.9464375,8.4478125 C18.1935625,8.3120625 18.283875,8.0015625 18.148125,7.754375 C17.9063125,7.3141875 17.6975,6.934 17.695125,6.1279375 Z" id="Shape"></path>
                <path d="M14.2909375,6.1380625 C14.2885625,5.332125 14.4951875,4.9506875 14.7344375,4.5089375 C15.001625,4.0158125 15.3043125,3.4568125 15.3011875,2.390375 C15.298,1.3239375 14.991875,0.7668125 14.7218125,0.27525 C14.5860625,0.028125 14.2755625,-0.0623125 14.028375,0.073625 C13.7811875,0.209375 13.690875,0.519875 13.8266875,0.7670625 C14.0685625,1.2073125 14.2775,1.5875625 14.279875,2.3935 C14.28225,3.1994375 14.075625,3.580875 13.836375,4.022625 C13.56925,4.51575 13.2665625,5.07475 13.269625,6.1411875 C13.2728125,7.207625 13.578875,7.76475 13.848875,8.25625 C13.94175,8.4254375 14.1165625,8.5211875 14.296875,8.5211875 C14.38,8.5211875 14.4643125,8.500875 14.54225,8.458 C14.7895,8.32225 14.87975,8.01175 14.744,7.764625 C14.502125,7.32425 14.2933125,6.9440625 14.2909375,6.1380625 Z" id="Shape"></path>
                <circle id="Oval" cx="6.4680625" cy="21.4468125" r="1"></circle>
                <circle id="Oval" cx="8.510625" cy="23.489375" r="1"></circle>
                <path d="M30.4680625,25.531625 L28.936125,25.531625 L28.936125,22.4678125 C28.936125,20.193 28.3375625,17.9635 27.206625,16.0054375 L27.426375,14.71075 L28.8605625,13.2763125 L30.1275625,13.2763125 C31.16,13.2763125 31.999875,12.436375 31.999875,11.404 C31.999875,10.371625 31.16,9.5316875 30.1275625,9.5316875 L29.957375,9.5316875 L29.957375,9.3615 C29.957375,8.329125 29.1175,7.4891875 28.0850625,7.4891875 C27.052625,7.4891875 26.21275,8.329125 26.21275,9.3615 L26.21275,10.6285 L24.778625,12.0625 L23.8873125,12.2138125 C21.610875,10.458375 18.8890625,9.5315 16.0000625,9.5315 C11.2879375,9.5315 7.156875,12.0643125 4.8950625,15.83975 C4.8670625,15.875125 4.8440625,15.9143125 4.82625,15.9560625 C3.7065625,17.869875 3.063875,20.095 3.063875,22.4678125 L3.063875,23.99975 C3.063875,24.2818125 3.2925,24.510375 3.5745,24.510375 C3.8565,24.510375 4.085125,24.2818125 4.085125,23.99975 L4.085125,22.4678125 C4.085125,20.35525 4.6384375,18.3698125 5.60675,16.6475625 C5.61825,16.6474375 5.6294375,16.6465625 5.6410625,16.6465625 C6.327125,16.6465625 6.6466875,16.898625 7.05125,17.21775 C7.4978125,17.5699375 8.0535,18.0083125 9.093875,18.0083125 C10.13425,18.0083125 10.6899375,17.57 11.1365,17.21775 C11.541,16.898625 11.8605625,16.6465625 12.546625,16.6465625 C13.23275,16.6465625 13.55225,16.898625 13.9568125,17.21775 C14.326625,17.5095 14.772375,17.8595 15.5054375,17.971375 C15.495625,18.1074375 15.4893125,18.244375 15.4893125,18.38275 C15.4893125,21.4799375 18.0090625,23.99975 21.1063125,23.99975 C23.856,23.99975 26.1845,22.0341875 26.6429375,19.3261875 L26.9194375,17.697375 C27.572875,19.1936875 27.9148125,20.8176875 27.9148125,22.4678125 L27.9148125,25.531625 L1.5319375,25.531625 C0.6871875,25.531625 0,26.218875 0,27.0635 C0,27.9081875 0.6871875,28.5954375 1.5319375,28.5954375 L2.185125,28.5954375 L2.5575625,29.7128125 C2.985,30.9951875 4.37875,31.99975 5.7304375,31.99975 L26.2694375,31.99975 C27.6211875,31.99975 29.014875,30.99525 29.4423125,29.7128125 L29.81475,28.5954375 L30.4679375,28.5954375 C31.3126875,28.5954375 31.999875,27.9081875 31.999875,27.0635 C31.9999375,26.218875 31.3128125,25.531625 30.4680625,25.531625 Z M14.58925,16.41575 C14.1426875,16.0635625 13.587,15.6251875 12.546625,15.6251875 C11.5063125,15.6251875 10.9505625,16.0635 10.504,16.41575 C10.0995,16.734875 9.7799375,16.9869375 9.093875,16.9869375 C8.4078125,16.9869375 8.08825,16.734875 7.6836875,16.41575 C7.3276875,16.135 6.901375,15.800125 6.2164375,15.675625 C8.3708125,12.581875 11.952625,10.552875 16,10.552875 C18.33,10.552875 20.5416875,11.2075 22.4633125,12.4555625 L20.163125,12.846 C17.9365625,13.2229375 16.2130625,14.8643125 15.6700625,16.9641875 C15.199125,16.895875 14.9228125,16.6788125 14.58925,16.41575 Z M26.589,14.1036875 C26.514125,14.1785625 26.464375,14.2749375 26.4466875,14.3793125 L25.636,19.1554375 C25.2610625,21.3705625 23.3560625,22.9784375 21.106375,22.9784375 C18.57225,22.9784375 16.510625,20.9168125 16.510625,18.3826875 C16.510625,18.1145 16.534125,17.8515 16.578125,17.5950625 C16.580125,17.58525 16.5814375,17.57525 16.5828125,17.56525 C16.9181875,15.6848125 18.392625,14.1815625 20.33375,13.853 L24.8498125,13.0864375 L25.1446875,13.3814375 C25.2444375,13.48125 25.3751875,13.5310625 25.505875,13.5310625 C25.6365625,13.5310625 25.7671875,13.4813125 25.866875,13.381625 C26.0663125,13.1821875 26.0664375,12.8589375 25.867,12.6595 L25.7465,12.5389375 L27.084375,11.2010625 C27.1801875,11.10525 27.2339375,10.9754375 27.2339375,10.8399375 L27.2339375,9.361375 C27.2339375,8.8920625 27.6156875,8.5103125 28.085,8.5103125 C28.5543125,8.5103125 28.9360625,8.8920625 28.9360625,9.361375 L28.9360625,10.0423125 C28.9360625,10.3243125 29.1646875,10.552875 29.4466875,10.552875 L30.1275625,10.552875 C30.596875,10.552875 30.978625,10.934625 30.978625,11.4039375 C30.978625,11.87325 30.596875,12.255 30.1275625,12.255 L28.649,12.255 C28.5135625,12.255 28.3836875,12.3088125 28.287875,12.4045625 L26.589,14.1036875 Z M30.4680625,27.574125 L29.458875,27.574125 C29.456625,27.5740625 29.4544375,27.574125 29.4521875,27.574125 L6.6383125,27.574125 C6.3563125,27.574125 6.1276875,27.8026875 6.1276875,28.08475 C6.1276875,28.3668125 6.3563125,28.595375 6.6383125,28.595375 L28.7383125,28.595375 L28.4735,29.38975 C28.1864375,30.2508125 27.1771875,30.978375 26.2694375,30.978375 L5.7305,30.978375 C4.8228125,30.978375 3.8135,30.2508125 3.5264375,29.38975 L3.261625,28.595375 L4.5956875,28.595375 C4.8776875,28.595375 5.1063125,28.3668125 5.1063125,28.08475 C5.1063125,27.8026875 4.8776875,27.574125 4.5956875,27.574125 L1.5319375,27.574125 C1.2503125,27.574125 1.0213125,27.3450625 1.0213125,27.0635 C1.0213125,26.781875 1.250375,26.552875 1.5319375,26.552875 L30.468125,26.552875 C30.74975,26.552875 30.97875,26.7819375 30.97875,27.0635 C30.97875,27.345125 30.7496875,27.574125 30.4680625,27.574125 Z" id="Shape"></path>
                <circle id="Oval" cx="21.1404375" cy="20.3915" r="1"></circle>
            </g>
        </g>
    </g>
</svg>