<?xml version="1.0" encoding="UTF-8"?>
<svg width="32px" height="32px" viewBox="0 0 32 32" version="1.1" xmlns="http://www.w3.org/2000/svg" xmlns:xlink="http://www.w3.org/1999/xlink">
    <!-- Generator: Sketch 48.2 (47327) - http://www.bohemiancoding.com/sketch -->
    <title>icon-notification</title>
    <desc>Created with Sketch.</desc>
    <defs></defs>
    <g id="EMS" stroke="none" stroke-width="1" fill="none" fill-rule="evenodd" transform="translate(-677.000000, -685.000000)">
        <g id="footer" transform="translate(259.000000, 649.000000)" fill="#000000" fill-rule="nonzero">
            <g id="shortcut-copy" transform="translate(418.000000, 36.000000)">
                <g id="icon-notification">
                    <path d="M23.5703223,3.95285182 C23.2850066,3.95285182 23.0541933,4.18371634 23.0541933,4.46898085 C23.0541933,4.75429657 23.2850066,4.98510988 23.5703223,4.98510988 C25.386323,4.98510988 26.8636396,6.46242596 26.8636396,8.27847783 C26.8636396,8.56374235 27.0945041,8.79460686 27.3797686,8.79460686 C27.6650843,8.79460686 27.8958977,8.56374235 27.8958977,8.27847783 C27.8958977,5.89339375 25.9554069,3.95285182 23.5703223,3.95285182 Z" id="Shape"></path>
                    <path d="M4.10410333,8.27847783 C4.10410333,8.56374235 4.33491613,8.79460686 4.62023236,8.79460686 C4.90549688,8.79460686 5.13636139,8.56374235 5.13636139,8.27847783 C5.13636139,6.46242596 6.61367747,4.98510988 8.42967763,4.98510988 C8.71499334,4.98510988 8.94580666,4.75429657 8.94580666,4.46898085 C8.94580666,4.18371634 8.71499334,3.95285182 8.42967763,3.95285182 C6.04459355,3.95285182 4.10410333,5.89339375 4.10410333,8.27847783 Z" id="Shape"></path>
                    <path d="M24.3319229,0.143406452 C24.0466072,0.143406452 23.8157939,0.374270968 23.8157939,0.659535432 C23.8157939,0.944799897 24.0466072,1.17566446 24.3319229,1.17566446 C27.8283868,1.17566446 30.6731351,4.01989683 30.6731351,7.51636124 C30.6731351,7.80167695 30.9039996,8.03249027 31.1892641,8.03249027 C31.4745286,8.03249027 31.7053931,7.80167695 31.7053931,7.51636124 C31.7053931,3.45086446 28.3974196,0.143406452 24.3319229,0.143406452 Z" id="Shape"></path>
                    <path d="M8.1837424,0.659535432 C8.1837424,0.374270968 7.95287788,0.143406452 7.66761285,0.143406452 C3.60206452,0.143406452 0.294606348,3.45086441 0.294606348,7.51636129 C0.294606348,7.80167701 0.525470916,8.03249032 0.810735432,8.03249032 C1.09599995,8.03249032 1.32686446,7.80167701 1.32686446,7.51636129 C1.32686446,4.01989688 4.17109683,1.17566452 7.6676129,1.17566452 C7.95287788,1.17566446 8.1837424,0.9448 8.1837424,0.659535432 Z" id="Shape"></path>
                    <path d="M26.2158459,23.33009 C26.1497802,23.1325152 26.0252902,22.9705555 25.874116,22.8416256 C25.8862974,22.5271489 25.894039,22.2107623 25.894039,21.8914323 C25.894039,14.8618066 22.9824514,8.90841285 18.9601027,6.86670906 C19.0200254,6.62381868 19.0552782,6.37117347 19.0552782,6.10970281 C19.0552782,4.36652841 17.6421155,2.95336717 15.8989416,2.95336717 C14.1557677,2.95336717 12.7426069,4.36652841 12.7426069,6.10970281 C12.7426069,6.37117347 12.7778577,6.62381868 12.8377804,6.86670906 C8.81543262,8.9084128 5.90384501,14.8618066 5.90384501,21.8914323 C5.90384501,22.2107623 5.9115871,22.5271489 5.92376759,22.8416256 C5.77259334,22.9705555 5.64810328,23.1325152 5.58203866,23.33009 L4.08655479,27.8031735 C3.84438699,28.527458 4.38353564,29.2759479 5.14745801,29.2759479 L12.437626,29.2759479 C12.8820132,30.7679739 14.2625545,31.856593 15.8989415,31.856593 C17.5353285,31.856593 18.9158719,30.7679739 19.360259,29.2759479 L26.650426,29.2759479 C27.4143479,29.2759479 27.9534971,28.527458 27.7113292,27.8031735 L26.2158459,23.33009 Z M13.3140131,7.80487747 L14.0595093,7.42645161 L13.8593031,6.61473523 C13.8158451,6.43858039 13.7946836,6.27336759 13.7946836,6.10970328 C13.7946836,4.94944516 14.7386839,4.00549657 15.8989415,4.00549657 C17.0591992,4.00549657 18.0031994,4.94944511 18.0031994,6.10970328 C18.0031994,6.27336759 17.9820379,6.43858039 17.9385809,6.61473523 L17.7383738,7.42645161 L18.483871,7.80487747 C22.2274071,9.70505843 24.8419091,15.4976255 24.8419091,21.8914322 C24.8419091,22.1073293 24.8387609,22.3260124 24.8325668,22.5464517 L6.96531628,22.5464517 C6.95912268,22.3260124 6.95597399,22.1073293 6.95597399,21.8914322 C6.95597399,15.4976255 9.57047788,9.70505843 13.3140131,7.80487747 Z M15.8989415,30.8243349 C14.842735,30.8243349 13.9327481,30.1866573 13.533781,29.2759478 L18.264103,29.2759478 C17.8651359,30.1866573 16.955149,30.8243349 15.8989415,30.8243349 Z M26.7206185,28.2078188 C26.6947612,28.2436898 26.6636904,28.2436898 26.6504261,28.2436898 L19.5118447,28.2436898 L12.2860383,28.2436898 L5.14745796,28.2436898 C5.13419365,28.2436898 5.10312232,28.2436898 5.07726457,28.2078188 C5.05161306,28.1721546 5.06136785,28.1429423 5.06554828,28.130503 L6.56103215,23.6574195 C6.57285182,23.6222199 6.60572908,23.5985285 6.6429935,23.5985285 L25.1548894,23.5985285 C25.1921544,23.5985285 25.2250326,23.62222 25.2368518,23.6573683 L26.7323352,28.130503 C26.7365151,28.1429423 26.746271,28.1721546 26.7206185,28.2078188 Z" id="Shape"></path>
                </g>
            </g>
        </g>
    </g>
</svg>