<?xml version="1.0" encoding="UTF-8"?>
<svg width="32px" height="31px" viewBox="0 0 32 31" version="1.1" xmlns="http://www.w3.org/2000/svg" xmlns:xlink="http://www.w3.org/1999/xlink">
    <!-- Generator: Sketch 48.2 (47327) - http://www.bohemiancoding.com/sketch -->
    <title>icon-long-break-active</title>
    <desc>Created with Sketch.</desc>
    <defs></defs>
    <g id="EMS--coffee-break" stroke="none" stroke-width="1" fill="none" fill-rule="evenodd" transform="translate(-664.000000, -140.000000)">
        <g id="tab" transform="translate(264.000000, 126.000000)" fill-rule="nonzero">
            <g id="icon-long-break-active" transform="translate(400.000000, 14.000000)">
                <path d="M30.8085,28.0696179 L30.4081875,29.4821972 C30.253625,30.0265244 29.668125,30.4719919 29.106375,30.4719919 L4.59575,30.4719919 C4.0340625,30.4719919 3.4485,30.0265244 3.2939375,29.4821972 L2.893625,28.0696179 L30.8085,28.0696179 Z" id="Shape" fill="#BBD7EA"></path>
                <path d="M1.625875,10.4809614 C0.924625,11.4507825 0.510625,12.6437154 0.510625,13.9334289 C0.510625,17.1724878 3.1244375,19.8081809 6.338,19.8081809 L6.8084375,19.8081809 L6.8084375,23.9512175 C6.8084375,25.0837256 7.7275625,26.0103862 8.851,26.0103862 L24.851,26.0103862 C25.974375,26.0103862 26.8935625,25.0837886 26.8935625,23.9512175 L26.8935625,10.4809614 L1.625875,10.4809614 Z M6.8085,17.7490752 L6.3380625,17.7490752 C4.25125,17.7490752 2.5531875,16.0372073 2.5531875,13.9334289 C2.5531875,13.4502195 2.642375,12.9793598 2.8139375,12.5400671 L6.8085,12.5400671 L6.8085,17.7490752 Z" id="Shape" fill="#BBD7EA"></path>
                <g id="Group" transform="translate(23.625000, 9.955285)" fill="#FFFFFF">
                    <path d="M0.5451875,13.8243618 C0.263125,13.8243618 0.0345625,13.593878 0.0345625,13.3095854 L0.0345625,5.33010976 C0.0345625,5.04581707 0.263125,4.81533333 0.5451875,4.81533333 C0.82725,4.81533333 1.0558125,5.04581707 1.0558125,5.33010976 L1.0558125,13.3096484 C1.055875,13.593878 0.8273125,13.8243618 0.5451875,13.8243618 Z" id="Shape"></path>
                    <path d="M0.5451875,3.78571748 C0.263125,3.78571748 0.0345625,3.55523374 0.0345625,3.27094106 L0.0345625,0.525424797 C0.0345625,0.241132114 0.263125,0.010648374 0.5451875,0.010648374 C0.82725,0.010648374 1.0558125,0.241132114 1.0558125,0.525424797 L1.0558125,3.27094106 C1.055875,3.55523374 0.8273125,3.78571748 0.5451875,3.78571748 Z" id="Shape"></path>
                </g>
                <g id="Group" transform="translate(0.000000, 9.955285)" fill="#8AB6CE">
                    <path d="M6.297875,10.3673577 L6.297875,13.9959959 C6.297875,15.4153171 7.4431875,16.5699411 8.8510625,16.5699411 L24.8510625,16.5699411 C26.2589375,16.5699411 27.40425,15.4153171 27.40425,13.9959959 L27.40425,0.525361789 C27.40425,0.241069106 27.1756875,0.0105853659 26.893625,0.0105853659 L1.6258125,0.0105853659 C1.4626875,0.0105853659 1.3093125,0.0892195122 1.2130625,0.222166667 C0.4195,1.32008333 0,2.61880691 0,3.97795528 C0,7.48757114 2.8215625,10.3453679 6.297875,10.3673577 Z M1.893,1.04013821 L26.383,1.04013821 L26.383,13.9959959 C26.383,14.8476138 25.69575,15.5403882 24.8510625,15.5403882 L8.8510625,15.5403882 C8.006375,15.5403882 7.319125,14.8476138 7.319125,13.9959959 L7.319125,9.85270732 C7.319125,9.56841463 7.0905625,9.33793089 6.8085,9.33793089 L6.337875,9.33793089 C3.40625,9.33793089 1.02125,6.93347764 1.02125,3.97801829 C1.02125,2.92439634 1.321875,1.91399797 1.893,1.04013821 Z" id="Shape"></path>
                    <path d="M6.337875,8.30831504 L6.8085,8.30831504 C7.0905625,8.30831504 7.319125,8.0778313 7.319125,7.79353862 L7.319125,2.58453049 C7.319125,2.3002378 7.0905625,2.06975407 6.8085,2.06975407 L2.8140625,2.06975407 C2.604375,2.06975407 2.415875,2.19898374 2.3389375,2.39569512 C2.14225,2.89875203 2.0425,3.43104472 2.0425,3.97795528 C2.0425625,6.36571138 3.9694375,8.30831504 6.337875,8.30831504 Z M3.1810625,3.09930691 L6.297875,3.09930691 L6.297875,7.27844715 C4.5109375,7.25683537 3.0638125,5.78452439 3.0638125,3.97795528 C3.0638125,3.67753252 3.103125,3.38328455 3.1810625,3.09930691 Z" id="Shape"></path>
                    <path d="M31.489375,17.5994939 L2.21275,17.5994939 C1.9306875,17.5994939 1.702125,17.8299776 1.702125,18.1142703 C1.702125,18.398563 1.9306875,18.6290467 2.21275,18.6290467 L2.5084375,18.6290467 L2.802875,19.6681138 C3.0195,20.4325915 3.807,21.0314207 4.5956875,21.0314207 L29.1063125,21.0314207 C29.895,21.0314207 30.6825,20.4325285 30.8991875,19.6681138 L31.1936875,18.6290467 L31.4893125,18.6290467 C31.771375,18.6290467 31.9999375,18.398563 31.9999375,18.1142703 C32,17.8299776 31.7714375,17.5994939 31.489375,17.5994939 Z M29.91725,19.3852703 C29.82575,19.707998 29.43925,20.0018679 29.106375,20.0018679 L4.59575,20.0018679 C4.2628125,20.0018679 3.876375,19.707935 3.7849375,19.3852703 L3.570625,18.6291098 L30.1315625,18.6291098 L29.91725,19.3852703 Z" id="Shape"></path>
                </g>
                <g id="Group" transform="translate(13.937500, 0.000000)" fill="#E8D6BD">
                    <path d="M0.5305625,8.93631707 C0.2485,8.93631707 0.0199375,8.70583333 0.0199375,8.42154065 C0.0199375,7.63753049 0.2315625,7.22867073 0.4183125,6.86788618 C0.576125,6.56298984 0.7008125,6.32204675 0.7008125,5.79057317 C0.7008125,5.25897358 0.576125,5.01803049 0.4183125,4.71300813 C0.2315625,4.35222358 0.0199375,3.94330081 0.0199375,3.15929065 C0.0199375,2.37528049 0.2315625,1.96635772 0.4183125,1.60551016 C0.576125,1.30055081 0.7008125,1.05960772 0.7008125,0.52800813 C0.7008125,0.243715447 0.929375,0.0132317073 1.2114375,0.0132317073 C1.4935,0.0132317073 1.7220625,0.243715447 1.7220625,0.52800813 C1.7220625,1.31201829 1.5104375,1.72094106 1.3236875,2.08178862 C1.165875,2.38674797 1.0411875,2.62769106 1.0411875,3.15929065 C1.0411875,3.69089024 1.165875,3.93183333 1.3236875,4.23679268 C1.5104375,4.59764024 1.7220625,5.00656301 1.7220625,5.79057317 C1.7220625,6.57452033 1.5104375,6.98338008 1.3236875,7.34416463 C1.165875,7.64912398 1.0411875,7.89000407 1.0411875,8.42154065 C1.04125,8.70583333 0.8126875,8.93631707 0.5305625,8.93631707 Z" id="Shape"></path>
                    <path d="M4.6156875,8.93631707 C4.333625,8.93631707 4.1050625,8.70583333 4.1050625,8.42154065 C4.1050625,7.63753049 4.3166875,7.22867073 4.5034375,6.86788618 C4.66125,6.56298984 4.7859375,6.32204675 4.7859375,5.79057317 C4.7859375,5.25897358 4.66125,5.01803049 4.5034375,4.71300813 C4.3166875,4.35222358 4.1050625,3.94330081 4.1050625,3.15929065 C4.1050625,2.37528049 4.3166875,1.96635772 4.5034375,1.60551016 C4.66125,1.30055081 4.7859375,1.05960772 4.7859375,0.52800813 C4.7859375,0.243715447 5.0145,0.0132317073 5.2965625,0.0132317073 C5.578625,0.0132317073 5.8071875,0.243715447 5.8071875,0.52800813 C5.8071875,1.31201829 5.5955625,1.72094106 5.4088125,2.08178862 C5.251,2.38674797 5.1263125,2.62769106 5.1263125,3.15929065 C5.1263125,3.69089024 5.251,3.93183333 5.4088125,4.23679268 C5.5955625,4.59764024 5.8071875,5.00656301 5.8071875,5.79057317 C5.8071875,6.57452033 5.5955625,6.98338008 5.4088125,7.34416463 C5.251,7.64912398 5.1263125,7.89000407 5.1263125,8.42154065 C5.1263125,8.70583333 4.89775,8.93631707 4.6156875,8.93631707 Z" id="Shape"></path>
                </g>
            </g>
        </g>
    </g>
</svg>