<?xml version="1.0" encoding="UTF-8"?>
<svg width="32px" height="32px" viewBox="0 0 32 32" version="1.1" xmlns="http://www.w3.org/2000/svg" xmlns:xlink="http://www.w3.org/1999/xlink">
    <!-- Generator: Sketch 48.2 (47327) - http://www.bohemiancoding.com/sketch -->
    <title>icon-lunch-break-active</title>
    <desc>Created with Sketch.</desc>
    <defs></defs>
    <g id="EMS--lunch-break" stroke="none" stroke-width="1" fill="none" fill-rule="evenodd" transform="translate(-856.000000, -139.000000)">
        <g id="tab" transform="translate(261.000000, 123.000000)" fill-rule="nonzero">
            <g id="icon-lunch-break-active" transform="translate(595.000000, 16.000000)">
                <path d="M26.7047489,16.1567319 L22.5591149,14.7950298 L22.5591149,28.0846979 L28.4255319,28.0846979 C28.4255319,28.0846979 28.4255319,23.1634383 28.4255319,22.4676766 C28.4255319,20.1636085 27.7976511,18.0065362 26.7047489,16.1567319 Z" id="Shape" fill="#975D50"></path>
                <path d="M23.8194383,14.7950298 L8.0187234,14.7948936 L5.29531915,16.1565957 C4.20241702,18.0064 3.57446809,20.1635404 3.57446809,22.4677447 L3.57446809,26.5528511 L25.9404255,26.5528511 C25.9404255,26.5528511 25.9404255,23.8989617 25.9404255,22.4677447 C25.9404255,19.572017 25.147983,16.9077106 23.8194383,14.7950298 Z" id="Shape" fill="#B1786B"></path>
                <path d="M16,10.0422128 C11.4417021,10.0422128 7.45749787,12.4972255 5.29531915,16.1565957 C5.40282553,16.1435915 5.51700426,16.1358298 5.64105532,16.1358298 C7.36748936,16.1358298 7.36748936,17.4975319 9.0939234,17.4975319 C10.8202894,17.4975319 10.8202894,16.1358298 12.5466553,16.1358298 C14.2730894,16.1358298 14.2730894,17.4975319 15.9995234,17.4975319 C17.7258894,17.4975319 17.7258894,16.1358298 19.4522553,16.1358298 C21.1786894,16.1358298 21.1786894,17.4975319 22.9051234,17.4975319 C24.6314894,17.4975319 24.6314894,16.1358298 26.3578553,16.1358298 C26.482383,16.1358298 26.5969702,16.1436596 26.704817,16.1568 C24.5426383,12.4972255 20.558366,10.0422128 16,10.0422128 Z" id="Shape" fill="#975D50"></path>
                <path d="M27.7446809,27.0634894 L24.2269277,31.4890213 L26.2694809,31.4890213 C27.3928851,31.4890213 28.6026894,30.6170553 28.9579574,29.5513191 L29.787234,27.0634894 L27.7446809,27.0634894 Z" id="Shape" fill="#FDCE6E"></path>
                <path d="M2.21276596,27.0634894 L3.04204255,29.5513191 C3.39731064,30.6170553 4.60711489,31.4890213 5.73051915,31.4890213 L24.2269957,31.4890213 C25.3504,31.4890213 26.5602043,30.6170553 26.9154723,29.5513191 L27.7447489,27.0634894 L2.21276596,27.0634894 Z" id="Shape" fill="#FDFA7B"></path>
                <path d="M30.4680851,26.0422128 L1.53191489,26.0422128 C0.967897872,26.0422128 0.510638298,26.4994723 0.510638298,27.0634894 C0.510638298,27.6275064 0.967897872,28.084766 1.53191489,28.084766 L30.4680851,28.084766 C31.0321021,28.084766 31.4893617,27.6275064 31.4893617,27.0634894 C31.4893617,26.4994723 31.0321021,26.0422128 30.4680851,26.0422128 Z" id="Shape" fill="#FEFDCA"></path>
                <path d="M31.4893617,11.4039149 C31.4893617,10.6518468 30.8797277,10.0422128 30.1276596,10.0422128 C30.0354043,10.0422128 29.7640851,10.0422128 29.4468085,10.0422128 C29.4468085,9.72493617 29.4468085,9.45361702 29.4468085,9.3613617 C29.4468085,8.60929362 28.8371745,7.99965957 28.0851064,7.99965957 C27.3330383,7.99965957 26.7234043,8.6093617 26.7234043,9.3613617 L26.7234043,10.8398979 L25.0245447,12.5387574 L25.0244766,14.4645447 L26.9502638,14.4646809 L28.6491915,12.7655489 L30.1277277,12.7655489 C30.8796596,12.765617 31.4893617,12.155983 31.4893617,11.4039149 Z" id="Shape" fill="#FFFFFF"></path>
                <path d="M26.1395745,19.2406468 L26.9502638,14.4647489 L25.0245447,12.5387574 L20.2483745,13.3494468 C17.8369362,13.757617 16,15.8549787 16,18.3826383 C16,21.2027915 18.2862298,23.4890213 21.106383,23.4890213 C23.6339745,23.4890213 25.7313362,21.6520851 26.1395745,19.2406468 Z" id="Shape" fill="#CB9385"></path>
                <path d="M16.6738383,6.13106383 C16.6770383,7.19754894 16.9830809,7.75468936 17.2531064,8.24612766 C17.3460426,8.41531915 17.520817,8.51097872 17.7011064,8.51097872 C17.7842383,8.51097872 17.8685277,8.49062128 17.9464851,8.44779574 C18.193634,8.31203404 18.2839149,8.00156596 18.1481532,7.75434894 C17.9063149,7.31417872 17.6974979,6.93399149 17.6951149,6.12793191 C17.6927319,5.32200851 17.8993702,4.94052766 18.1386213,4.49879149 C18.4057872,4.00565106 18.7084936,3.44667234 18.7053617,2.38025532 C18.7021617,1.3138383 18.3960511,0.756697872 18.1259574,0.265123404 C17.9901957,0.0180425532 17.6797277,-0.0723744681 17.4325106,0.0635234043 C17.1852936,0.199285106 17.0950128,0.509753191 17.2308426,0.756970213 C17.4727489,1.19720851 17.681634,1.57746383 17.684017,2.38338723 C17.6864,3.18931064 17.4797617,3.57079149 17.2405106,4.01252766 C16.9734809,4.50566809 16.6707745,5.06464681 16.6738383,6.13106383 Z" id="Shape" fill="#FFCFB2"></path>
                <path d="M13.269583,6.14114043 C13.272783,7.20755745 13.5788255,7.76469787 13.8488511,8.25620426 C13.9417191,8.42539574 14.1165617,8.5211234 14.2968511,8.5211234 C14.379983,8.5211234 14.4642723,8.50083404 14.5422298,8.45794043 C14.7894468,8.32217872 14.8797277,8.01171064 14.743966,7.7645617 C14.5021277,7.32425532 14.2933106,6.94406809 14.2909277,6.13800851 C14.2885447,5.33208511 14.495183,4.95060426 14.734434,4.50886809 C15.0016,4.01572766 15.3043064,3.45674894 15.3011745,2.39033191 C15.2979745,1.32391489 14.9918638,0.766774468 14.7217702,0.2752 C14.5860085,0.0280510638 14.2755404,-0.0623659574 14.0283234,0.0736 C13.7811064,0.209361702 13.6908255,0.519829787 13.8266553,0.767046809 C14.0685617,1.20728511 14.2774468,1.58754043 14.2798298,2.39346383 C14.2822128,3.19938723 14.0755745,3.58086809 13.8363234,4.02260426 C13.5692255,4.51574468 13.2665191,5.0747234 13.269583,6.14114043 Z" id="Shape" fill="#FFCFB2"></path>
                <circle id="Oval" fill="#000000" cx="6.46808511" cy="21.4464681" r="1"></circle>
                <circle id="Oval" fill="#000000" cx="8.5106383" cy="23.4890213" r="1"></circle>
                <path d="M30.4680851,25.5315745 L28.9361702,25.5315745 L28.9361702,22.4677447 C28.9361702,20.1929532 28.337634,17.9634383 27.2066723,16.0053787 L27.4264511,14.7106723 L28.8606638,13.2762553 L30.1276596,13.2762553 C31.1601021,13.2762553 32,12.4362894 32,11.4039149 C32,10.3715404 31.1601021,9.53157447 30.1276596,9.53157447 L29.9574468,9.53157447 L29.9574468,9.3613617 C29.9574468,8.32898723 29.1175489,7.48902128 28.0851064,7.48902128 C27.0526638,7.48902128 26.212766,8.32898723 26.212766,9.3613617 L26.212766,10.6283574 L24.7786213,12.0625021 L23.8873191,12.2137872 C21.6108936,10.4583489 18.8890553,9.53150638 16.0000681,9.53150638 C11.287966,9.53150638 7.15690213,12.0643404 4.89504681,15.8397277 C4.86706383,15.8751319 4.84405106,15.9142809 4.82621277,15.956017 C3.70655319,17.8698213 3.06382979,20.0949787 3.06382979,22.4677447 L3.06382979,23.9996596 C3.06382979,24.2817362 3.29245957,24.5102979 3.57446809,24.5102979 C3.8564766,24.5102979 4.08510638,24.2817362 4.08510638,23.9996596 L4.08510638,22.4677447 C4.08510638,20.3552 4.63843404,18.3697702 5.60674043,16.6474894 C5.61824681,16.6473532 5.62941277,16.6464681 5.64105532,16.6464681 C6.32714894,16.6464681 6.64667234,16.8985191 7.05123404,17.217634 C7.49780426,17.5698383 8.05351489,18.0081702 9.09385532,18.0081702 C10.1341957,18.0081702 10.6899064,17.5698383 11.1364766,17.217634 C11.5409702,16.8985191 11.8605617,16.6464681 12.5465872,16.6464681 C13.2326809,16.6464681 13.5522043,16.8985191 13.956766,17.217634 C14.3266043,17.5093787 14.7723574,17.8594043 15.5053617,17.9712681 C15.4955574,18.1073021 15.4892255,18.2442894 15.4892255,18.3826383 C15.4892255,21.4798298 18.0089872,23.9996596 21.1062468,23.9996596 C23.8559319,23.9996596 26.1844426,22.0341106 26.6428596,19.3260936 L26.9193532,17.6972936 C27.572766,19.1936 27.9147574,20.817634 27.9147574,22.4677447 L27.9147574,25.5315745 L1.53191489,25.5315745 C0.687182979,25.5315745 0,26.2188255 0,27.0634894 C0,27.9081532 0.687182979,28.5954043 1.53191489,28.5954043 L2.1851234,28.5954043 L2.55754894,29.7127489 C2.98498723,30.9951319 4.37875745,31.9996596 5.73045106,31.9996596 L26.2694809,31.9996596 C27.6212426,31.9996596 29.0149447,30.9951319 29.442383,29.7127489 L29.8148085,28.5954043 L30.468017,28.5954043 C31.3127489,28.5954043 31.9999319,27.9081532 31.9999319,27.0634894 C31.9999319,26.2188255 31.312817,25.5315745 30.4680851,25.5315745 Z M14.5892766,16.4157277 C14.1427064,16.0635234 13.5869957,15.6251915 12.5466553,15.6251915 C11.5063149,15.6251915 10.9506043,16.0635234 10.504034,16.4157277 C10.0995404,16.7348426 9.77994894,16.9868936 9.0939234,16.9868936 C8.40782979,16.9868936 8.08830638,16.7348426 7.68374468,16.4157277 C7.32772766,16.1349447 6.90144681,15.8001021 6.21651064,15.6755745 C8.37085957,12.5818553 11.9526809,10.5528511 16.0000681,10.5528511 C18.3300766,10.5528511 20.5417532,11.2074894 22.4633872,12.4555574 L20.1632,12.8460255 C17.9366128,13.2229447 16.2131064,14.8643404 15.6701277,16.9642213 C15.1991149,16.8958638 14.9228255,16.6788085 14.5892766,16.4157277 Z M21.106383,22.978383 C18.5722553,22.978383 16.5106383,20.916766 16.5106383,18.3826383 C16.5106383,18.1144511 16.5341277,17.8514383 16.5781106,17.5950298 C16.5800851,17.5852255 16.5814468,17.575217 16.5828085,17.5652085 C16.9181957,15.684766 18.3926468,14.1815149 20.3337532,13.8529362 L24.8498383,13.086366 L25.1447149,13.3813787 C25.2444596,13.4811915 25.375183,13.5310298 25.5059064,13.5310298 C25.6365617,13.5310298 25.767217,13.4812596 25.8668936,13.381583 C26.0663149,13.1821617 26.0664511,12.8588936 25.8670298,12.6594723 L25.7465191,12.5388936 L27.0843915,11.2010213 C27.1801872,11.1052255 27.2339745,10.9753872 27.2339745,10.8398979 L27.2339745,9.3613617 C27.2339745,8.89205106 27.6157277,8.51029787 28.0850383,8.51029787 C28.5543489,8.51029787 28.9361021,8.89205106 28.9361021,9.3613617 L28.9361021,10.0422809 C28.9361021,10.3242894 29.1647319,10.5528511 29.4467404,10.5528511 L30.1275915,10.5528511 C30.5969021,10.5528511 30.9786553,10.9346043 30.9786553,11.4039149 C30.9786553,11.8732255 30.5969021,12.2549787 30.1275915,12.2549787 L28.6490553,12.2549787 C28.513634,12.2549787 28.3837277,12.308766 28.2879319,12.4045617 L26.5890043,14.1036936 C26.5141106,14.1785872 26.4644085,14.2749277 26.4467064,14.3793021 L25.636017,19.1554043 C25.2610723,21.3705532 23.3560511,22.978383 21.106383,22.978383 Z M30.4680851,27.5741277 L29.4589277,27.5741277 C29.4566809,27.5740596 29.4545021,27.5741277 29.4522553,27.5741277 L6.63829787,27.5741277 C6.35628936,27.5741277 6.12765957,27.8026894 6.12765957,28.084766 C6.12765957,28.3668426 6.35628936,28.5954043 6.63829787,28.5954043 L28.7383149,28.5954043 L28.4735319,29.3897532 C28.1864851,30.2508255 27.1771915,30.978383 26.2694809,30.978383 L5.73051915,30.978383 C4.82280851,30.978383 3.81351489,30.2508255 3.52646809,29.3897532 L3.26168511,28.5954043 L4.59574468,28.5954043 C4.87775319,28.5954043 5.10638298,28.3668426 5.10638298,28.084766 C5.10638298,27.8026894 4.87775319,27.5741277 4.59574468,27.5741277 L1.53191489,27.5741277 C1.25031489,27.5741277 1.0212766,27.3450894 1.0212766,27.0634894 C1.0212766,26.7818894 1.25031489,26.5528511 1.53191489,26.5528511 L30.4680851,26.5528511 C30.7496851,26.5528511 30.9787234,26.7818894 30.9787234,27.0634894 C30.9787234,27.3450894 30.7496851,27.5741277 30.4680851,27.5741277 Z" id="Shape" fill="#000000"></path>
                <circle id="Oval" fill="#000000" cx="21.1404255" cy="20.3911489" r="1"></circle>
            </g>
        </g>
    </g>
</svg>