<?xml version="1.0" encoding="UTF-8"?>
<svg width="34px" height="25px" viewBox="0 0 34 25" version="1.1" xmlns="http://www.w3.org/2000/svg" xmlns:xlink="http://www.w3.org/1999/xlink">
    <!-- Generator: Sketch 48.2 (47327) - http://www.bohemiancoding.com/sketch -->
    <title>icon-keyboard</title>
    <desc>Created with Sketch.</desc>
    <defs></defs>
    <g id="EMS" stroke="none" stroke-width="1" fill="none" fill-rule="evenodd" transform="translate(-261.000000, -687.000000)">
        <g id="footer" transform="translate(259.000000, 649.000000)" fill="#000000" fill-rule="nonzero">
            <g id="shortcut" transform="translate(3.000000, 39.000000)">
                <g id="icon-keyboard">
                    <ellipse id="Oval" cx="13.0909375" cy="11.5" rx="1" ry="1"></ellipse>
                    <ellipse id="Oval" cx="10.1818125" cy="11.5" rx="1" ry="1"></ellipse>
                    <ellipse id="Oval" cx="13.0909375" cy="15.0780374" rx="1" ry="1"></ellipse>
                    <ellipse id="Oval" cx="10.1818125" cy="15.0780374" rx="1" ry="1"></ellipse>
                    <ellipse id="Oval" cx="7.27275" cy="11.5" rx="1" ry="1"></ellipse>
                    <ellipse id="Oval" cx="4.363625" cy="11.5" rx="1" ry="1"></ellipse>
                    <ellipse id="Oval" cx="7.27275" cy="15.0780374" rx="1" ry="1"></ellipse>
                    <ellipse id="Oval" cx="21.8181875" cy="11.5" rx="1" ry="1"></ellipse>
                    <ellipse id="Oval" cx="18.9090625" cy="11.5" rx="1" ry="1"></ellipse>
                    <ellipse id="Oval" cx="21.8181875" cy="15.0780374" rx="1" ry="1"></ellipse>
                    <ellipse id="Oval" cx="18.9090625" cy="15.0780374" rx="1" ry="1"></ellipse>
                    <ellipse id="Oval" cx="27.636375" cy="11.5" rx="1" ry="1"></ellipse>
                    <ellipse id="Oval" cx="24.72725" cy="11.5" rx="1" ry="1"></ellipse>
                    <ellipse id="Oval" cx="27.636375" cy="15.0780374" rx="1" ry="1"></ellipse>
                    <ellipse id="Oval" cx="24.72725" cy="15.0780374" rx="1" ry="1"></ellipse>
                    <ellipse id="Oval" cx="16" cy="11.5" rx="1" ry="1"></ellipse>
                    <ellipse id="Oval" cx="16" cy="15.0780374" rx="1" ry="1"></ellipse>
                    <ellipse id="Oval" cx="4.363625" cy="15.0780374" rx="1" ry="1"></ellipse>
                    <ellipse id="Oval" cx="7.27275" cy="18.6560749" rx="1" ry="1"></ellipse>
                    <ellipse id="Oval" cx="27.636375" cy="18.6560749" rx="1" ry="1"></ellipse>
                    <ellipse id="Oval" cx="24.72725" cy="18.6560749" rx="1" ry="1"></ellipse>
                    <ellipse id="Oval" cx="4.363625" cy="18.6560749" rx="1" ry="1"></ellipse>
                    <path d="M21.8181875,17.9404305 L10.1818125,17.9404305 C9.779625,17.9404305 9.4545625,18.261016 9.4545625,18.6560134 C9.4545625,19.0510107 9.779625,19.3716578 10.1818125,19.3716578 L21.8181875,19.3716578 C22.220375,19.3716578 22.5454375,19.0510722 22.5454375,18.6560749 C22.5454375,18.2610775 22.220375,17.9404305 21.8181875,17.9404305 Z" id="Shape"></path>
                    <path d="M29.8181875,7.20637968 L18.9090625,7.20637968 C18.506875,7.20637968 18.1818125,7.52696524 18.1818125,7.92196257 C18.1818125,8.31695989 18.506875,8.63754545 18.9090625,8.63754545 L29.818125,8.63754545 C30.2195625,8.63754545 30.545375,8.95886898 30.545375,9.35312834 L30.545375,20.8028235 C30.545375,21.1971444 30.2195625,21.5184064 29.818125,21.5184064 L2.1818125,21.5184064 C1.780375,21.5184064 1.4545625,21.1970829 1.4545625,20.8028235 L1.4545625,9.35318984 C1.4545625,8.95886898 1.780375,8.63760695 2.1818125,8.63760695 L16,8.63760695 C16.4021875,8.63760695 16.72725,8.31702139 16.72725,7.92202406 L16.72725,5.05963102 C16.72725,4.66531016 17.0530625,4.34404813 17.4545,4.34404813 L22.5454375,4.34404813 C23.748375,4.34404813 24.72725,3.38081551 24.72725,2.19723797 C24.72725,1.01359893 23.7483125,0.0504278075 22.5454375,0.0504278075 L10.9090625,0.0504278075 C10.506875,0.0504278075 10.1818125,0.371013369 10.1818125,0.766010695 C10.1818125,1.16100802 10.506875,1.48159358 10.9090625,1.48159358 L22.5454375,1.48159358 C22.946875,1.48159358 23.2726875,1.80291711 23.2726875,2.19717647 C23.2726875,2.59143583 22.946875,2.91275936 22.5454375,2.91275936 L17.4545,2.91275936 C16.2515625,2.91275936 15.2726875,3.87599198 15.2726875,5.05956952 L15.2726875,7.20637968 L2.1818125,7.20637968 C0.9789375,7.20637968 0,8.1695508 0,9.35318984 L0,20.802885 C0,21.9865241 0.9789375,22.9496952 2.1818125,22.9496952 L29.8181875,22.9496952 C31.021125,22.9496952 32,21.9864626 32,20.802885 L32,9.35318984 C32,8.1695508 31.0210625,7.20637968 29.8181875,7.20637968 Z" id="Shape" stroke="#FFFFFF" stroke-width="0.5"></path>
                </g>
            </g>
        </g>
    </g>
</svg>