<?xml version="1.0" encoding="UTF-8"?>
<svg width="36px" height="36px" viewBox="0 0 36 36" version="1.1" xmlns="http://www.w3.org/2000/svg" xmlns:xlink="http://www.w3.org/1999/xlink">
    <!-- Generator: Sketch 48.2 (47327) - http://www.bohemiancoding.com/sketch -->
    <title>icon/pomodoro</title>
    <desc>Created with Sketch.</desc>
    <defs></defs>
    <g id="EMS--short-break" stroke="none" stroke-width="1" fill="none" fill-rule="evenodd" transform="translate(-290.000000, -137.000000)">
        <g id="tab" transform="translate(261.000000, 123.000000)" fill="#000000" fill-rule="nonzero">
            <g id="icon/pomodoro" transform="translate(29.000000, 14.000000)">
                <g id="stopwatch">
                    <path d="M19.0142069,23.42655 C19.6603448,23.3766 20.2493793,23.04915 20.6317241,22.5268333 L26.4432414,14.5447 C26.6213793,14.2998833 26.5946897,13.96195 26.3786897,13.74735 C26.1626897,13.5333667 25.8225517,13.50685 25.5761379,13.6832167 L17.5406897,19.4589167 C17.0168276,19.83755 16.6872414,20.4227667 16.6369655,21.0647167 C16.5866897,21.7066667 16.8206897,22.33505 17.2781379,22.7895333 C17.6946207,23.2039333 18.2563448,23.4333333 18.8404138,23.4333333 C18.8981379,23.4333333 18.9558621,23.4308667 19.0142069,23.42655 Z M17.8746207,21.1609167 C17.8963448,20.8791 18.0415862,20.62195 18.27,20.4566833 L23.1715862,16.9336667 L19.6268276,21.80225 C19.4592414,22.0310333 19.2004138,22.1747167 18.9167586,22.1969167 C18.6343448,22.2154167 18.3568966,22.1179833 18.1551724,21.9175667 C17.9553103,21.7183833 17.8522759,21.4421167 17.8746207,21.1609167 Z" id="Shape"></path>
                    <path d="M32.9176552,12.0644667 C32.2497931,10.9248667 31.5074483,9.93018333 30.6645517,9.02861667 L31.9977931,7.70463333 L32.8754483,8.5766 L35.5084138,5.96008333 L32.8754483,3.34418333 L30.2418621,5.96008333 L31.1201379,6.83266667 L29.7868966,8.15665 C28.8794483,7.31921667 27.8788966,6.58106667 26.802,5.95761667 C26.757931,5.92308333 26.7442759,5.9237 26.7312414,5.91691667 C24.8114483,4.81801667 22.6545517,4.08603333 20.3548966,3.81778333 L20.3548966,3.08333333 L21.285931,3.08333333 C22.1418621,3.08333333 22.8376552,2.39205 22.8376552,1.54166667 C22.8376552,0.691283333 22.1412414,0 21.2853103,0 L15.6991034,0 C14.8431724,0 14.1473793,0.691283333 14.1473793,1.54166667 C14.1473793,2.39205 14.8431724,3.08333333 15.6991034,3.08333333 L16.6301379,3.08333333 L16.6301379,3.7962 C15.9597931,3.86711667 15.2906897,3.97565 14.6290345,4.12611667 C14.2951034,4.20196667 14.085931,4.53311667 14.1628966,4.86488333 C14.2392414,5.19665 14.5725517,5.40508333 14.9064828,5.328 C15.4775172,5.19788333 16.0541379,5.09983333 16.632,5.03385 L17.298,4.98266667 C17.5015862,4.96725 17.6890345,4.95615 17.8715172,4.94751667 L17.8715172,6.16666667 C17.8715172,6.50768333 18.1489655,6.78333333 18.4922069,6.78333333 C18.8354483,6.78333333 19.1128966,6.50768333 19.1128966,6.16666667 L19.1128966,4.95183333 C21.4473103,5.05851667 23.6470345,5.68135 25.6028276,6.70625 L24.9908276,7.7589 C24.8195172,8.05428333 24.9213103,8.43106667 25.218,8.60126667 C25.3154483,8.65738333 25.4222069,8.6839 25.5277241,8.6839 C25.7424828,8.6839 25.9510345,8.57351667 26.0658621,8.37556667 L26.676,7.32538333 C28.6181379,8.54946667 30.267931,10.1885667 31.5,12.1181167 L30.4429655,12.7243 C30.1468966,12.8945 30.0451034,13.2712833 30.2170345,13.5666667 C30.3324828,13.7646167 30.5404138,13.875 30.7551724,13.875 C30.8606897,13.875 30.9674483,13.8484833 31.0648966,13.7923667 L32.1244138,13.1843333 C33.1702759,15.1552 33.7990345,17.3764333 33.8927586,19.7327167 L32.6668966,19.7327167 C32.3236552,19.7327167 32.0462069,20.0083667 32.0462069,20.3493833 C32.0462069,20.6904 32.3236552,20.96605 32.6668966,20.96605 L33.8927586,20.96605 C33.7990345,23.3223333 33.1702759,25.5435667 32.1244138,27.5144333 L31.0648966,26.9064 C30.7682069,26.7362 30.3883448,26.8361 30.2170345,27.1321 C30.0457241,27.4274833 30.1475172,27.8042667 30.4442069,27.9744667 L31.5012414,28.58065 C30.2691724,30.5102 28.6193793,32.1493 26.6772414,33.3733833 L26.0671034,32.3232 C25.8951724,32.0272 25.5146897,31.9266833 25.2192414,32.0975 C24.921931,32.2677 24.8201379,32.6451 24.992069,32.9398667 L25.604069,33.9925167 C24,34.5 24.5,36.5 26.7113793,34.7935667 C26.7821379,34.7621167 26.7889655,34.7504 26.8007586,34.7423833 C29.3077241,33.29075 31.4025517,31.2119667 32.8667586,28.7231 C32.9114483,28.66205 32.9108276,28.6484833 32.9170345,28.6355333 C34.3346897,26.1935333 35.1496552,23.3655 35.1496552,20.35 C35.1496552,17.3345 34.3346897,14.5064667 32.9176552,12.0644667 Z M32.8748276,5.08811667 L33.7524828,5.96008333 L32.8748276,6.83266667 L31.9965517,5.96008333 L32.8748276,5.08811667 Z M17.8715172,3.71295 L17.8715172,1.85 L15.6991034,1.85 C15.5284138,1.85 15.3887586,1.71125 15.3887586,1.54166667 C15.3887586,1.37208333 15.5284138,1.23333333 15.6991034,1.23333333 L21.2853103,1.23333333 C21.456,1.23333333 21.5956552,1.37208333 21.5956552,1.54166667 C21.5956552,1.71125 21.456,1.85 21.2853103,1.85 L19.1128966,1.85 L19.1128966,3.71295 C18.8968966,3.70431667 18.6908276,3.7 18.4922069,3.7 C18.4748276,3.7 18.4549655,3.70123333 18.4375862,3.70123333 C18.422069,3.70123333 18.4065517,3.7 18.3910345,3.7 C18.2892414,3.7 18.1874483,3.70678333 18.0856552,3.70863333 C18.0136552,3.71048333 17.946,3.70986667 17.8715172,3.71295 Z" id="Shape"></path>
                    <path d="M12.906,8.63333333 L9.80255172,8.63333333 C9.45931034,8.63333333 9.18186207,8.90898333 9.18186207,9.25 C9.18186207,9.59101667 9.45931034,9.86666667 9.80255172,9.86666667 L12.906,9.86666667 C13.2492414,9.86666667 13.5266897,9.59101667 13.5266897,9.25 C13.5266897,8.90898333 13.2492414,8.63333333 12.906,8.63333333 Z" id="Shape"></path>
                    <path d="M12.906,12.95 L6.69910345,12.95 C6.35586207,12.95 6.07841379,13.22565 6.07841379,13.5666667 C6.07841379,13.9076833 6.35586207,14.1833333 6.69910345,14.1833333 L12.906,14.1833333 C13.2492414,14.1833333 13.5266897,13.9076833 13.5266897,13.5666667 C13.5266897,13.22565 13.2492414,12.95 12.906,12.95 Z" id="Shape"></path>
                    <path d="M12.906,17.2666667 L3.59565517,17.2666667 C3.25241379,17.2666667 2.97496552,17.5423167 2.97496552,17.8833333 C2.97496552,18.22435 3.25241379,18.5 3.59565517,18.5 L12.906,18.5 C13.2492414,18.5 13.5266897,18.22435 13.5266897,17.8833333 C13.5266897,17.5423167 13.2492414,17.2666667 12.906,17.2666667 Z" id="Shape"></path>
                    <path d="M12.906,21.5833333 L1.11289655,21.5833333 C0.769655172,21.5833333 0.492206897,21.8589833 0.492206897,22.2 C0.492206897,22.5410167 0.769655172,22.8166667 1.11289655,22.8166667 L12.906,22.8166667 C13.2492414,22.8166667 13.5266897,22.5410167 13.5266897,22.2 C13.5266897,21.8589833 13.2492414,21.5833333 12.906,21.5833333 Z" id="Shape"></path>
                    <path d="M12.906,25.9 L4.83703448,25.9 C4.4937931,25.9 4.21634483,26.17565 4.21634483,26.5166667 C4.21634483,26.8576833 4.4937931,27.1333333 4.83703448,27.1333333 L12.906,27.1333333 C13.2492414,27.1333333 13.5266897,26.8576833 13.5266897,26.5166667 C13.5266897,26.17565 13.2492414,25.9 12.906,25.9 Z" id="Shape"></path>
                    <path d="M12.906,30.2166667 L8.56117241,30.2166667 C8.21793103,30.2166667 7.94048276,30.4923167 7.94048276,30.8333333 C7.94048276,31.17435 8.21793103,31.45 8.56117241,31.45 L12.906,31.45 C13.2492414,31.45 13.5266897,31.17435 13.5266897,30.8333333 C13.5266897,30.4923167 13.2492414,30.2166667 12.906,30.2166667 Z" id="Shape"></path>
                </g>
            </g>
        </g>
    </g>
</svg>