<?xml version="1.0" encoding="UTF-8"?>
<svg width="32px" height="31px" viewBox="0 0 32 31" version="1.1" xmlns="http://www.w3.org/2000/svg" xmlns:xlink="http://www.w3.org/1999/xlink">
    <!-- Generator: Sketch 48.2 (47327) - http://www.bohemiancoding.com/sketch -->
    <title>icon-long-break</title>
    <desc>Created with Sketch.</desc>
    <defs></defs>
    <g id="EMS" stroke="none" stroke-width="1" fill="none" fill-rule="evenodd" transform="translate(-664.000000, -140.000000)">
        <g id="tab" transform="translate(261.000000, 123.000000)" fill="#252525" fill-rule="nonzero">
            <g id="icon-long-break" transform="translate(403.000000, 17.000000)">
                <path d="M14.4680851,8.94151106 C14.1860085,8.94151106 13.9574468,8.71120575 13.9574468,8.42713053 C13.9574468,7.64376327 14.1690553,7.23520796 14.3558128,6.87473009 C14.513634,6.57007965 14.6382979,6.32934956 14.6382979,5.7983031 C14.6382979,5.26711947 14.513634,5.02638938 14.3558128,4.72160177 C14.1690553,4.36112389 13.9574468,3.9525 13.9574468,3.16913274 C13.9574468,2.38576549 14.1690553,1.97714159 14.3558128,1.61659513 C14.513634,1.31187611 14.6382979,1.07114602 14.6382979,0.539962389 C14.6382979,0.255887168 14.8668596,0.0255818584 15.1489362,0.0255818584 C15.4310128,0.0255818584 15.6595745,0.255887168 15.6595745,0.539962389 C15.6595745,1.32332965 15.447966,1.73195354 15.2612085,2.0925 C15.1033872,2.39721903 14.9787234,2.63794912 14.9787234,3.16913274 C14.9787234,3.70031637 15.1033872,3.94104646 15.2612085,4.24576549 C15.447966,4.60631195 15.6595745,5.01493584 15.6595745,5.7983031 C15.6595745,6.58160177 15.447966,6.99015708 15.2612085,7.35063496 C15.1033872,7.65535398 14.9787234,7.89601549 14.9787234,8.42713053 C14.9787234,8.71120575 14.7501617,8.94151106 14.4680851,8.94151106 Z" id="Shape"></path>
                <path d="M18.5531915,8.94151106 C18.2711149,8.94151106 18.0425532,8.71120575 18.0425532,8.42713053 C18.0425532,7.64376327 18.2541617,7.23520796 18.4409191,6.87473009 C18.5987404,6.57007965 18.7234043,6.32934956 18.7234043,5.7983031 C18.7234043,5.26711947 18.5987404,5.02638938 18.4409191,4.72160177 C18.2541617,4.36112389 18.0425532,3.9525 18.0425532,3.16913274 C18.0425532,2.38576549 18.2541617,1.97714159 18.4409191,1.61659513 C18.5987404,1.31187611 18.7234043,1.07114602 18.7234043,0.539962389 C18.7234043,0.255887168 18.951966,0.0255818584 19.2340426,0.0255818584 C19.5161191,0.0255818584 19.7446809,0.255887168 19.7446809,0.539962389 C19.7446809,1.32332965 19.5330723,1.73195354 19.3463149,2.0925 C19.1884936,2.39721903 19.0638298,2.63794912 19.0638298,3.16913274 C19.0638298,3.70031637 19.1884936,3.94104646 19.3463149,4.24576549 C19.5330723,4.60631195 19.7446809,5.01493584 19.7446809,5.7983031 C19.7446809,6.58160177 19.5330723,6.99015708 19.3463149,7.35063496 C19.1884936,7.65535398 19.0638298,7.89601549 19.0638298,8.42713053 C19.0638298,8.71120575 18.8352681,8.94151106 18.5531915,8.94151106 Z" id="Shape"></path>
                <path d="M24.8510638,26.5164535 L8.85106383,26.5164535 C7.4432,26.5164535 6.29787234,25.3627323 6.29787234,23.9445509 L6.29787234,20.3187854 C2.82158298,20.2968385 0,17.4413407 0,13.9345 C0,12.5763982 0.41947234,11.278719 1.21307234,10.1817168 C1.30920851,10.0488009 1.46260426,9.97027212 1.62580426,9.97027212 L26.893617,9.97027212 C27.1756936,9.97027212 27.4042553,10.2005774 27.4042553,10.4846527 L27.4042553,23.9445509 C27.4042553,25.3627323 26.2589277,26.5164535 24.8510638,26.5164535 Z M1.89297021,10.9990332 C1.32187234,11.872177 1.0212766,12.8817345 1.0212766,13.9345 C1.0212766,16.8875929 3.40629787,19.2901615 6.33790638,19.2901615 L6.80851064,19.2901615 C7.09058723,19.2901615 7.31914894,19.5204668 7.31914894,19.804542 L7.31914894,23.9445509 C7.31914894,24.7954735 8.0064,25.4876925 8.85106383,25.4876925 L24.8510638,25.4876925 C25.6957277,25.4876925 26.3829787,24.7954735 26.3829787,23.9445509 L26.3829787,10.9990332 L1.89297021,10.9990332 Z M6.80851064,18.2614004 L6.33790638,18.2614004 C3.96942979,18.2614004 2.04255319,16.3203341 2.04255319,13.9345 C2.04255319,13.3880221 2.14229787,12.8561527 2.33899574,12.3535 C2.41593191,12.1569381 2.6043234,12.0277942 2.81409362,12.0277942 L6.80851064,12.0277942 C7.09058723,12.0277942 7.31914894,12.2580996 7.31914894,12.5421748 L7.31914894,17.7470199 C7.31914894,18.0310951 7.09058723,18.2614004 6.80851064,18.2614004 Z M3.18107234,13.0565553 C3.10311489,13.3402876 3.06382979,13.6343075 3.06382979,13.9345 C3.06382979,15.7396327 4.51091064,17.2107611 6.29787234,17.232365 L6.29787234,13.0565553 L3.18107234,13.0565553 Z" id="Shape"></path>
                <path d="M24.1702128,23.7730907 C23.8881362,23.7730907 23.6595745,23.5427854 23.6595745,23.2587102 L23.6595745,15.2855376 C23.6595745,15.0014624 23.8881362,14.7711571 24.1702128,14.7711571 C24.4522894,14.7711571 24.6808511,15.0014624 24.6808511,15.2855376 L24.6808511,23.2587102 C24.6808511,23.5427854 24.4522894,23.7730907 24.1702128,23.7730907 Z" id="Shape"></path>
                <path d="M24.1702128,13.742396 C23.8881362,13.742396 23.6595745,13.5120907 23.6595745,13.2280155 L23.6595745,10.4846527 C23.6595745,10.2005774 23.8881362,9.97027212 24.1702128,9.97027212 C24.4522894,9.97027212 24.6808511,10.2005774 24.6808511,10.4846527 L24.6808511,13.2280155 C24.6808511,13.5120907 24.4522894,13.742396 24.1702128,13.742396 Z" id="Shape"></path>
                <path d="M29.106383,30.9744181 L4.59574468,30.9744181 C3.80704681,30.9744181 3.01957447,30.3760221 2.80292766,29.6122013 L2.40258723,28.2008783 C2.32510638,27.9277765 2.48217872,27.6430155 2.75329362,27.5650354 C3.02420426,27.4870553 3.30709787,27.645073 3.38457872,27.9183119 L3.78485106,29.3295664 C3.87628936,29.6519801 4.26280851,29.9456571 4.5956766,29.9456571 L29.1063149,29.9456571 C29.4392511,29.9456571 29.8257021,29.6519801 29.9172085,29.3295664 L30.3174128,27.9183119 C30.3948936,27.645073 30.677583,27.4869867 30.9486979,27.5650354 C31.2198128,27.6430841 31.3768851,27.9277765 31.2994043,28.2008783 L30.8991319,29.6122013 C30.6825532,30.3760221 29.8950809,30.9744181 29.106383,30.9744181 Z" id="Shape"></path>
                <path d="M31.4893617,28.5739757 L2.21276596,28.5739757 C1.93068936,28.5739757 1.70212766,28.3436704 1.70212766,28.0595951 C1.70212766,27.7755199 1.93068936,27.5452146 2.21276596,27.5452146 L31.4893617,27.5452146 C31.7714383,27.5452146 32,27.7755199 32,28.0595951 C32,28.3436704 31.7714383,28.5739757 31.4893617,28.5739757 Z" id="Shape"></path>
            </g>
        </g>
    </g>
</svg>