<?xml version="1.0" encoding="UTF-8"?>
<svg width="22px" height="32px" viewBox="0 0 22 32" version="1.1" xmlns="http://www.w3.org/2000/svg" xmlns:xlink="http://www.w3.org/1999/xlink">
    <!-- Generator: Sketch 48.2 (47327) - http://www.bohemiancoding.com/sketch -->
    <title>icon-short-break</title>
    <desc>Created with Sketch.</desc>
    <defs></defs>
    <g id="EMS" stroke="none" stroke-width="1" fill="none" fill-rule="evenodd" transform="translate(-482.000000, -139.000000)">
        <g id="tab" transform="translate(261.000000, 123.000000)" fill="#252525" fill-rule="nonzero">
            <g id="icon-short-break" transform="translate(221.000000, 16.000000)">
                <path d="M21.6945143,1.80078431 C21.6945143,1.26243137 21.6945143,0 10.9993714,0 C0.304228571,0 0.304857143,1.26243137 0.304857143,1.7945098 C0.2948,2.80219608 0.113771429,26.5173333 4.67657143,31.116549 C5.258,31.7025882 5.90794286,32 6.6088,32 L15.3905714,32 C16.0958286,32 16.7501714,31.7007059 17.3347429,31.110902 C21.9069714,26.4966275 21.7052,2.80094118 21.6945143,1.80078431 Z M1.56011429,2.0147451 C3.50868571,0.981960784 18.4906857,0.981960784 20.4398857,2.0147451 C20.4593714,4.32188235 20.4040571,7.8707451 20.1916,11.6956863 C19.4429714,12.4329412 18.8565143,12.7818039 18.3511429,12.7868235 C18.348,12.7868235 18.3442286,12.7868235 18.3404571,12.7868235 C17.8313143,12.7868235 17.2461143,12.4385882 16.4987429,11.6931765 L16.0543429,11.2495686 L15.6099429,11.6931765 C14.8487429,12.4536471 14.1849714,12.8257255 13.5815429,12.8307451 C13.5765143,12.8307451 13.5721143,12.8313725 13.5677143,12.8313725 C12.9724571,12.8313725 12.3250286,12.4737255 11.5896,11.7389804 L11.1452,11.2953725 L10.7008,11.7389804 C9.19914286,13.2385882 8.14691429,13.2492549 6.67982857,11.7847843 L6.23542857,11.3411765 L5.79102857,11.7847843 C5.0556,12.5195294 4.41005714,12.8696471 3.79845714,12.8332549 C3.21514286,12.8056471 2.56582857,12.4310588 1.8172,11.6944314 C1.60097143,7.872 1.54251429,4.32501961 1.56011429,2.0147451 Z M16.4409143,30.2287059 C16.0964571,30.5756863 15.7526286,30.745098 15.3905714,30.745098 L6.6088,30.745098 C6.25114286,30.745098 5.91108571,30.5775686 5.56977143,30.2337255 C3.45211429,28.0991373 2.40428571,20.5320784 1.9228,13.4174118 C2.54005714,13.8396863 3.13342857,14.0580392 3.73748571,14.0875294 C4.5672,14.1264314 5.39125714,13.7982745 6.23354286,13.0836078 C7.05822857,13.7882353 7.85525714,14.1327059 8.65668571,14.1327059 C8.66548571,14.1327059 8.67428571,14.1320784 8.68308571,14.1320784 C9.49205714,14.124549 10.3016571,13.7662745 11.1452,13.0396863 C11.9780571,13.7512157 12.8096571,14.0843922 13.5928571,14.0862745 C14.4005714,14.0787451 15.2089143,13.721098 16.0518286,12.9963922 C16.8733714,13.715451 17.5943429,14.0423529 18.3385714,14.0423529 C18.3467429,14.0423529 18.3542857,14.0423529 18.3624571,14.0417255 C18.9288,14.0367059 19.4850857,13.8390588 20.0853714,13.4249412 C19.6076571,20.5301961 18.5629714,28.0872157 16.4409143,30.2287059 Z" id="Shape"></path>
                <ellipse id="Oval" cx="13.0453714" cy="17.113098" rx="1" ry="1"></ellipse>
                <ellipse id="Oval" cx="14.3025143" cy="20.2503529" rx="1" ry="1"></ellipse>
                <ellipse id="Oval" cx="16.1882286" cy="23.3876078" rx="1" ry="1"></ellipse>
                <ellipse id="Oval" cx="11.1596571" cy="21.5052549" rx="1" ry="1"></ellipse>
                <ellipse id="Oval" cx="15.5596571" cy="16.4856471" rx="1" ry="1"></ellipse>
                <path d="M6.64274286,22.1910588 C7.12297143,22.1910588 7.57742857,22.0128627 7.92754286,21.6847059 L9.30537143,20.3996863 C10.0646857,19.6912941 10.1055429,18.4978824 9.39588571,17.7399216 L8.10857143,16.364549 C7.39828571,15.6065882 6.20274286,15.5651765 5.44342857,16.2741961 L4.0656,17.5592157 C3.69851429,17.9011765 3.48668571,18.3673725 3.46971429,18.8712157 C3.45274286,19.3744314 3.63188571,19.8531765 3.97508571,20.2196078 L5.2624,21.5943529 C5.60497143,21.9607843 6.072,22.1722353 6.57611429,22.1891765 C6.59811429,22.1904314 6.62074286,22.1910588 6.64274286,22.1910588 Z M4.89342857,19.3631373 C4.77965714,19.2420392 4.72057143,19.0820392 4.72622857,18.9132549 C4.73188571,18.7444706 4.80228571,18.5894902 4.9236,18.4759216 L6.30142857,17.190902 C6.42274286,17.0779608 6.57674286,17.0221176 6.73074286,17.0221176 C6.8992,17.0221176 7.0664,17.0886275 7.19022857,17.2203922 L8.47754286,18.5957647 C8.71388571,18.848 8.70005714,19.2458039 8.44737143,19.4823529 L7.06891429,20.7686275 C6.9476,20.8828235 6.78857143,20.9317647 6.61885714,20.9361569 C6.44977143,20.9305098 6.29451429,20.8602353 6.18074286,20.7391373 L4.89342857,19.3631373 Z" id="Shape"></path>
                <path d="M13.7657143,24.6688627 C13.0554286,23.910902 11.8598857,23.8701176 11.1005714,24.5785098 L9.72274286,25.8635294 C9.35565714,26.2054902 9.14382857,26.6716863 9.12685714,27.1755294 C9.10988571,27.6787451 9.28902857,28.1574902 9.63222857,28.5239216 L10.9195429,29.8986667 C11.2904,30.2952157 11.7938857,30.4953725 12.298,30.4953725 C12.7593714,30.4953725 13.2213714,30.3272157 13.5846857,29.9890196 L14.9618857,28.7033725 C15.3289714,28.3607843 15.5401714,27.8952157 15.5577714,27.392 C15.5753714,26.8887843 15.3956,26.4100392 15.0524,26.0436078 L13.7657143,24.6688627 Z M14.1045143,27.7879216 L12.7266857,29.0735686 C12.4733714,29.3094902 12.0748571,29.2956863 11.8378857,29.0428235 L10.5505714,27.6680784 C10.4368,27.5469804 10.3777143,27.3869804 10.3833714,27.2181961 C10.3890286,27.0494118 10.4594286,26.8944314 10.5807429,26.7808627 L11.9585714,25.4958431 C12.0798857,25.382902 12.2338857,25.3270588 12.3878857,25.3270588 C12.5563429,25.3270588 12.7235429,25.3935686 12.8473714,25.5253333 L14.1346857,26.9007059 C14.3710286,27.1535686 14.3578286,27.5513725 14.1045143,27.7879216 Z" id="Shape"></path>
                <ellipse id="Oval" cx="6.13108571" cy="25.3283137" rx="1" ry="1"></ellipse>
                <ellipse id="Oval" cx="7.38822857" cy="29.0930196" rx="1" ry="1"></ellipse>
            </g>
        </g>
    </g>
</svg>