<?xml version="1.0" encoding="UTF-8"?>
<svg width="22px" height="32px" viewBox="0 0 22 32" version="1.1" xmlns="http://www.w3.org/2000/svg" xmlns:xlink="http://www.w3.org/1999/xlink">
    <!-- Generator: Sketch 48.2 (47327) - http://www.bohemiancoding.com/sketch -->
    <title>icon-short-break-active</title>
    <desc>Created with Sketch.</desc>
    <defs></defs>
    <g id="EMS--short-break" stroke="none" stroke-width="1" fill="none" fill-rule="evenodd" transform="translate(-482.000000, -139.000000)">
        <g id="tab" transform="translate(261.000000, 123.000000)" fill-rule="nonzero">
            <g id="icon-short-break-active" transform="translate(221.000000, 16.000000)">
                <g id="Group">
                    <path d="M15.5197059,31.68 L6.47964706,31.68 C0.336470588,31.68 0.637352941,1.5168 0.637352941,1.5168 C0.637352941,-0.07872 21.362,-0.07872 21.362,1.5168 C21.362,1.5168 21.6894118,31.68 15.5197059,31.68 Z" id="Shape" fill="#DAE7EF"></path>
                    <path d="M15.5197059,32 L6.47964706,32 C5.84747059,32 5.25541176,31.72864 4.72029412,31.1936 C0.117117647,26.59648 0.303470588,2.53568 0.313823529,1.5136 C0.313823529,0.19776 7.00894118,0 10.9993529,0 C14.9897647,0 21.6855294,0.19776 21.6855294,1.5168 C21.6965294,2.5344 21.9042353,26.57536 17.2907059,31.18784 C16.7523529,31.72672 16.1564118,32 15.5197059,32 Z M10.9993529,0.64 C4.54947059,0.64 1.23652941,1.18784 0.944705882,1.57696 C0.958294118,1.76768 0.765470588,26.33408 5.17970588,30.74368 C5.59511765,31.1584 6.02088235,31.36 6.47964706,31.36 L15.5197059,31.36 C15.9836471,31.36 16.412,31.15648 16.8306471,30.73792 C21.2558824,26.3136 21.0410588,1.76704 21.0384706,1.52 C20.7621765,1.18784 17.4498824,0.64 10.9993529,0.64 Z" id="Shape" fill="#BBD7EA"></path>
                </g>
                <path d="M20.9679412,12.016 C20.9478824,12.03584 20.9278235,12.05568 20.9077647,12.07552 C19.1387059,13.79904 17.952,13.79072 16.203,12.06016 C14.4002941,13.8432 12.9178824,13.85664 11.1488235,12.10688 C9.34611765,13.88992 7.86370588,13.90336 6.09464706,12.1536 C4.29194118,13.93664 2.80952941,13.76576 1.04047059,12.016 L0.922705882,12.08576 C1.42288235,20.7808 2.78688235,31.68 6.47964706,31.68 L15.5197059,31.68 C19.2215294,31.68 20.5835882,20.82432 21.0818235,12.13824 L20.9679412,12.016 Z" id="Shape" fill="#BBD7EA"></path>
                <ellipse id="Oval" fill="#FFFFFF" cx="13.1055294" cy="17.136" rx="1" ry="1"></ellipse>
                <ellipse id="Oval" fill="#FFFFFF" cx="14.3996471" cy="20.336" rx="1" ry="1"></ellipse>
                <ellipse id="Oval" fill="#FFFFFF" cx="16.3408235" cy="23.536" rx="1" ry="1"></ellipse>
                <ellipse id="Oval" fill="#FFFFFF" cx="11.1643529" cy="21.616" rx="1" ry="1"></ellipse>
                <ellipse id="Oval" fill="#FFFFFF" cx="15.6937647" cy="16.496" rx="1" ry="1"></ellipse>
                <path d="M8.81423529,20.02112 L7.39588235,21.33184 C6.87564706,21.81248 6.05258824,21.78496 5.56664706,21.2704 L4.24147059,19.86752 C3.75552941,19.35296 3.78335294,18.53888 4.30358824,18.05824 L5.72194118,16.74752 C6.24217647,16.26688 7.06523529,16.2944 7.55117647,16.80896 L8.87635294,18.21184 C9.36229412,18.7264 9.33382353,19.54048 8.81423529,20.02112 Z" id="Shape" fill="#8AB6CE"></path>
                <path d="M14.6377647,28.49152 L13.2194118,29.80224 C12.6991765,30.28288 11.8761176,30.25536 11.3901765,29.7408 L10.065,28.33792 C9.57905882,27.82336 9.60688235,27.00928 10.1271176,26.52864 L11.5454706,25.21792 C12.0657059,24.73728 12.8887647,24.7648 13.3747059,25.27936 L14.6998824,26.68224 C15.1858235,27.1968 15.1573529,28.01088 14.6377647,28.49152 Z" id="Shape" fill="#8AB6CE"></path>
                <ellipse id="Oval" fill="#FFFFFF" cx="5.98788235" cy="25.51488" rx="1" ry="1"></ellipse>
                <ellipse id="Oval" fill="#FFFFFF" cx="7.282" cy="29.35488" rx="1" ry="1"></ellipse>
            </g>
        </g>
    </g>
</svg>