<?xml version="1.0" encoding="UTF-8"?>
<svg width="18px" height="18px" viewBox="0 0 18 18" version="1.1" xmlns="http://www.w3.org/2000/svg" xmlns:xlink="http://www.w3.org/1999/xlink">
    <!-- Generator: Sketch 48.2 (47327) - http://www.bohemiancoding.com/sketch -->
    <title>ion-ios-gear-outline - Ionicons</title>
    <desc>Created with Sketch.</desc>
    <defs></defs>
    <g id="EMS" stroke="none" stroke-width="1" fill="none" fill-rule="evenodd" transform="translate(-1227.000000, -28.000000)">
        <g id="top-bar" fill="#FFFFFF">
            <g id="Top-Bar">
                <path d="M1236.04688,32.5 C1237.29688,32.5 1238.35937,32.9374956 1239.23438,33.8125 C1240.10938,34.6875044 1240.54688,35.7499938 1240.54688,37 C1240.54688,38.2500062 1240.10938,39.3124956 1239.23438,40.1875 C1238.35937,41.0625044 1237.29688,41.5 1236.04688,41.5 C1234.79687,41.5 1233.73438,41.0625044 1232.85938,40.1875 C1231.98437,39.3124956 1231.54688,38.2500062 1231.54688,37 C1231.54688,35.7499938 1231.98437,34.6875044 1232.85938,33.8125 C1233.73438,32.9374956 1234.79687,32.5 1236.04688,32.5 Z M1236.04688,40.75 C1237.07813,40.75 1237.96093,40.3828162 1238.69531,39.6484375 C1239.42969,38.9140588 1239.79688,38.0312552 1239.79688,37 C1239.79688,35.9687448 1239.42969,35.0859412 1238.69531,34.3515625 C1237.96093,33.6171838 1237.07813,33.25 1236.04688,33.25 C1235.01562,33.25 1234.13282,33.6171838 1233.39844,34.3515625 C1232.66406,35.0859412 1232.29688,35.9687448 1232.29688,37 C1232.29688,38.0312552 1232.66406,38.9140588 1233.39844,39.6484375 C1234.13282,40.3828162 1235.01562,40.75 1236.04688,40.75 Z M1233.46875,28.890625 C1233,29.0468758 1232.53125,29.2343739 1232.0625,29.453125 C1232.125,29.7031263 1232.125,30.0781225 1232.0625,30.578125 C1231.96875,31.2031281 1231.6875,31.7499977 1231.21875,32.21875 C1230.625,32.812503 1229.90625,33.109375 1229.0625,33.109375 C1228.78125,33.109375 1228.57813,33.0937502 1228.45312,33.0625 C1228.23437,33.5312523 1228.04688,33.9999977 1227.89062,34.46875 C1228.14063,34.6250008 1228.40625,34.8906231 1228.6875,35.265625 C1229.0625,35.7656275 1229.25,36.3437467 1229.25,37 C1229.25,37.6250031 1229.0625,38.2031223 1228.6875,38.734375 C1228.40625,39.1093769 1228.14063,39.3749992 1227.89062,39.53125 C1228.04688,40.0000023 1228.23437,40.4687477 1228.45312,40.9375 C1228.57813,40.9062498 1228.78125,40.890625 1229.0625,40.890625 C1229.90625,40.890625 1230.625,41.187497 1231.21875,41.78125 C1231.6875,42.2500023 1231.96875,42.7968719 1232.0625,43.421875 C1232.125,43.9218775 1232.125,44.2968738 1232.0625,44.546875 C1232.53125,44.7656261 1233,44.9531242 1233.46875,45.109375 C1233.625,44.8593738 1233.89062,44.5937514 1234.26562,44.3125 C1234.79688,43.9374981 1235.375,43.75 1236,43.75 C1236.65625,43.75 1237.23437,43.9374981 1237.73438,44.3125 C1238.10938,44.5937514 1238.375,44.8593738 1238.53125,45.109375 C1239,44.9531242 1239.46875,44.7656261 1239.9375,44.546875 C1239.875,44.2968738 1239.875,43.9218775 1239.9375,43.421875 C1240.03125,42.7968719 1240.3125,42.2500023 1240.78125,41.78125 C1241.375,41.187497 1242.09375,40.890625 1242.9375,40.890625 C1243.21875,40.890625 1243.42187,40.9062498 1243.54688,40.9375 C1243.76563,40.4687477 1243.95312,40.0000023 1244.10938,39.53125 C1243.85937,39.3749992 1243.59375,39.1093769 1243.3125,38.734375 C1242.9375,38.2031223 1242.75,37.6250031 1242.75,37 C1242.75,36.3437467 1242.9375,35.7656275 1243.3125,35.265625 C1243.59375,34.8906231 1243.85937,34.6250008 1244.10938,34.46875 C1243.95312,33.9999977 1243.76563,33.5312523 1243.54688,33.0625 C1243.42187,33.0937502 1243.21875,33.109375 1242.9375,33.109375 C1242.09375,33.109375 1241.375,32.812503 1240.78125,32.21875 C1240.3125,31.7499977 1240.03125,31.2031281 1239.9375,30.578125 C1239.875,30.0781225 1239.875,29.7031263 1239.9375,29.453125 C1239.46875,29.2343739 1239,29.0468758 1238.53125,28.890625 C1238.375,29.1406263 1238.10938,29.4062486 1237.73438,29.6875 C1237.23437,30.0625019 1236.65625,30.25 1236,30.25 C1235.375,30.25 1234.79688,30.0625019 1234.26562,29.6875 C1233.89062,29.4062486 1233.625,29.1406263 1233.46875,28.890625 Z M1238.15625,28 C1239.15626,28.2500013 1240.04687,28.6249975 1240.82812,29.125 C1240.39062,30.0937548 1240.54687,30.9531213 1241.29688,31.703125 C1241.73438,32.1406272 1242.28125,32.359375 1242.9375,32.359375 C1243.3125,32.359375 1243.625,32.2968756 1243.875,32.171875 C1244.375,32.9531289 1244.75,33.843745 1245,34.84375 C1243.99999,35.2187519 1243.5,35.9374947 1243.5,37 C1243.5,38.0625053 1243.99999,38.7812481 1245,39.15625 C1244.75,40.156255 1244.375,41.0468711 1243.875,41.828125 C1243.625,41.7031244 1243.3125,41.640625 1242.9375,41.640625 C1242.28125,41.640625 1241.73438,41.8593728 1241.29688,42.296875 C1240.54687,43.0468787 1240.39062,43.9062452 1240.82812,44.875 C1240.04687,45.3750025 1239.15626,45.7499988 1238.15625,46 C1237.78125,44.999995 1237.06251,44.5 1236,44.5 C1234.93749,44.5 1234.21875,44.999995 1233.84375,46 C1232.84374,45.7499988 1231.95313,45.3750025 1231.17188,44.875 C1231.60938,43.9062452 1231.45313,43.0468787 1230.70312,42.296875 C1230.26562,41.8593728 1229.71875,41.640625 1229.0625,41.640625 C1228.6875,41.640625 1228.375,41.7031244 1228.125,41.828125 C1227.625,41.0468711 1227.25,40.156255 1227,39.15625 C1228.00001,38.7812481 1228.5,38.0625053 1228.5,37 C1228.5,35.9374947 1228.00001,35.2187519 1227,34.84375 C1227.25,33.843745 1227.625,32.9531289 1228.125,32.171875 C1228.375,32.2968756 1228.6875,32.359375 1229.0625,32.359375 C1229.71875,32.359375 1230.26562,32.1406272 1230.70312,31.703125 C1231.45313,30.9531213 1231.60938,30.0937548 1231.17188,29.125 C1231.95313,28.6249975 1232.84374,28.2500013 1233.84375,28 C1234.21875,29.000005 1234.93749,29.5 1236,29.5 C1237.06251,29.5 1237.78125,29.000005 1238.15625,28 Z" id="ion-ios-gear-outline---Ionicons"></path>
            </g>
        </g>
    </g>
</svg>