<?xml version="1.0" encoding="UTF-8"?>
<svg width="187px" height="48px" viewBox="0 0 187 48" version="1.1" xmlns="http://www.w3.org/2000/svg" xmlns:xlink="http://www.w3.org/1999/xlink">
    <!-- Generator: Sketch 48.2 (47327) - http://www.bohemiancoding.com/sketch -->
    <title>logo</title>
    <desc>Created with Sketch.</desc>
    <defs>
        <polygon id="path-1" points="0.552161093 0.4011 22.9516945 0.4011 22.9516945 16.6719 0.552161093 16.6719"></polygon>
        <polygon id="path-3" points="0.198785209 0.3054 5.45943794 0.3054 5.45943794 16.85442 0.198785209 16.85442"></polygon>
    </defs>
    <g id="EMS" stroke="none" stroke-width="1" fill="none" fill-rule="evenodd" transform="translate(-23.000000, -11.000000)">
        <g id="top-bar">
            <g id="Top-Bar">
                <g id="logo" transform="translate(23.000000, 11.000000)">
                    <path d="M38.9961141,35.37444 C38.9961141,36.05364 37.9745289,36.76704 36.7827797,36.76704 C35.4894132,36.76704 34.6043199,36.05364 34.6043199,35.37444 L34.6043199,21.99024 C34.6043199,21.17484 35.4894132,20.63124 36.7827797,20.63124 C37.8386383,20.63124 38.7237315,21.17484 38.7237315,21.99024 L38.7237315,23.00964 C39.3707154,21.68424 41.00441,20.42784 43.2850884,20.42784 C46.4171881,20.42784 49.1404132,23.55264 49.1404132,27.32364 L49.1404132,35.37444 C49.1404132,36.29124 48.0172106,36.76704 46.9276801,36.76704 C45.9066961,36.76704 44.7492203,36.29124 44.7492203,35.37444 L44.7492203,27.32364 C44.7492203,25.79484 43.4215804,24.26664 41.7878859,24.26664 C40.3916994,24.26664 38.9961141,25.42104 38.9961141,27.32364 L38.9961141,35.37444 Z" id="Fill-1" fill="#FFFFFF"></path>
                    <path d="M62.1791235,27.32364 C62.1791235,25.79484 60.8172103,24.26664 59.1835158,24.26664 C57.5155479,24.26664 56.187908,25.79484 56.187908,27.32364 L56.187908,30.10944 C56.187908,31.70544 57.5155479,33.23424 59.1835158,33.23424 C60.8172103,33.23424 62.1791235,31.70544 62.1791235,30.10944 L62.1791235,27.32364 Z M66.5703164,27.32364 L66.5703164,30.10944 C66.5703164,33.74364 63.1321621,37.07304 59.1835158,37.07304 C55.1999949,37.07304 51.7961138,33.77724 51.7961138,30.10944 L51.7961138,27.32364 C51.7961138,23.65464 55.1320495,20.42784 59.1835158,20.42784 C63.1321621,20.42784 66.5703164,23.55264 66.5703164,27.32364 Z" id="Fill-3" fill="#FFFFFF"></path>
                    <path d="M77.6678945,24.2664 C75.693872,24.2664 73.7535215,26.2026 73.7535215,29.2938 L73.7535215,35.3742 C73.7535215,36.054 72.7319363,36.7668 71.5059138,36.7668 C70.2468206,36.7668 69.3617273,36.054 69.3617273,35.3742 L69.3617273,21.99 C69.3617273,21.1752 70.2468206,20.6316 71.5059138,20.6316 C72.5960457,20.6316 73.4811389,21.1752 73.4811389,21.99 L73.4811389,23.3832 C74.1617949,21.9222 75.7954894,20.4276 77.6678945,20.4276 L78.7237531,20.4276 C79.5402997,20.4276 80.3237756,21.3108 80.3237756,22.3302 C80.3237756,23.3832 79.5402997,24.2664 78.7237531,24.2664 L77.6678945,24.2664 Z" id="Fill-5" fill="#FFFFFF"></path>
                    <path d="M85.6684881,30.1092 C85.6684881,31.6716 87.0298,33.2346 88.6298225,33.2346 C90.366337,33.2346 91.7276489,31.434 91.7276489,30.7206 L91.7276489,27.3234 C91.7276489,25.4208 90.1276264,24.2664 88.6640958,24.2664 C86.996128,24.2664 85.6684881,25.7952 85.6684881,27.3234 L85.6684881,30.1092 Z M96.1188418,12.5808 L96.1188418,35.3742 C96.1188418,36.054 95.2000765,36.7668 93.940382,36.7668 C92.8514527,36.7668 91.9663595,36.054 91.9663595,35.3742 L91.9663595,34.389 C91.2857035,35.7822 89.4132984,37.0728 87.2342373,37.0728 C84.0684656,37.0728 81.2772952,33.7434 81.2772952,30.1092 L81.2772952,27.3234 C81.2772952,23.553 83.999919,20.4276 87.3364559,20.4276 C89.4469704,20.4276 90.9790476,21.6846 91.7276489,23.0094 L91.7276489,12.5808 C91.7276489,11.766 92.7149608,11.2218 93.940382,11.2218 C95.2000765,11.2218 96.1188418,11.766 96.1188418,12.5808 Z" id="Fill-7" fill="#FFFFFF"></path>
                    <path d="M103.94879,21.99018 L103.94879,35.37438 C103.94879,36.05358 102.961478,36.76698 101.735456,36.76698 C100.475761,36.76698 99.5569961,36.05358 99.5569961,35.37438 L99.5569961,21.99018 C99.5569961,21.17538 100.475761,20.63178 101.735456,20.63178 C102.961478,20.63178 103.94879,21.17538 103.94879,21.99018 M104.118954,14.89098 C104.118954,16.01178 103.063697,17.03058 101.735456,17.03058 C100.374144,17.03058 99.3188868,16.01178 99.3188868,14.89098 C99.3188868,13.73598 100.374144,12.75078 101.735456,12.75078 C103.063697,12.75078 104.118954,13.73598 104.118954,14.89098" id="Fill-9" fill="#FFFFFF"></path>
                    <path d="M107.2166,30.55056 L107.2166,26.91576 C107.2166,23.31516 109.259169,20.49576 113.786854,20.49576 C116.680243,20.49576 118.586922,21.78696 118.586922,22.70376 C118.586922,23.17896 118.144375,23.79036 117.599009,23.79036 C116.952626,23.79036 116.373587,22.53396 113.888472,22.53396 C110.927137,22.53396 109.429333,24.19836 109.429333,26.91576 L109.429333,30.55056 C109.429333,33.30216 110.927137,34.96656 113.923346,34.96656 C116.544353,34.96656 117.089118,33.67596 117.769774,33.67596 C118.382485,33.67596 118.790758,34.25316 118.790758,34.76316 C118.790758,35.67996 116.816735,37.00476 113.820526,37.00476 C109.293443,37.00476 107.2166,34.25316 107.2166,30.55056" id="Fill-11" fill="#FFFFFF"></path>
                    <path d="M131.693096,26.8479 C131.693096,24.6741 129.787019,22.5339 127.403521,22.5339 C125.021225,22.5339 123.182492,24.6741 123.182492,26.8479 L123.182492,30.5505 C123.182492,32.8263 125.054897,34.9665 127.403521,34.9665 C129.787019,34.9665 131.693096,32.8263 131.693096,30.5505 L131.693096,26.8479 Z M133.90583,26.8479 L133.90583,30.5505 C133.90583,33.9135 130.87655,37.0047 127.403521,37.0047 C123.965367,37.0047 120.97036,33.9477 120.97036,30.5505 L120.97036,26.8479 C120.97036,23.4507 123.863749,20.4957 127.403521,20.4957 C130.87655,20.4957 133.90583,23.3493 133.90583,26.8479 Z" id="Fill-13" fill="#FFFFFF"></path>
                    <path d="M147.658748,26.7462 C147.658748,24.3006 145.889162,22.5336 143.778047,22.5336 C141.804024,22.5336 139.760854,24.096 139.760854,26.8476 L139.760854,35.8836 C139.760854,36.3258 139.250362,36.7668 138.637651,36.7668 C138.024941,36.7668 137.548722,36.3258 137.548722,35.8836 L137.548722,21.5148 C137.548722,21.039 138.024941,20.6994 138.637651,20.6994 C139.216088,20.6994 139.692908,21.039 139.692908,21.5148 L139.692908,23.0772 C140.442111,21.7524 141.973587,20.496 144.220593,20.496 C146.4676,20.496 148.237786,21.8886 149.054934,23.8926 C150.246082,21.5826 152.254378,20.496 154.229002,20.496 C157.156664,20.496 159.948436,22.8054 159.948436,26.8476 L159.948436,35.8836 C159.948436,36.3258 159.471616,36.7668 158.824632,36.7668 C158.246195,36.7668 157.735703,36.3258 157.735703,35.8836 L157.735703,26.8476 C157.735703,23.9946 155.726805,22.5336 153.8544,22.5336 C151.880378,22.5336 149.871481,24.1644 149.871481,26.712 L149.871481,35.9178 C149.871481,36.5292 149.293043,36.7668 148.748278,36.7668 C148.237786,36.7668 147.658748,36.5292 147.658748,35.9178 L147.658748,26.7462 Z" id="Fill-15" fill="#FFFFFF"></path>
                    <g id="Group-19" transform="translate(163.549839, 20.094900)">
                        <mask id="mask-2" fill="white">
                            <use xlink:href="#path-1"></use>
                        </mask>
                        <g id="Clip-18"></g>
                        <path d="M10.6621868,6.6513 C10.6621868,4.2057 8.89260161,2.4387 6.78148585,2.4387 C4.80746334,2.4387 2.76429293,4.0011 2.76429293,6.7527 L2.76429293,15.7887 C2.76429293,16.2309 2.25380096,16.6719 1.64109035,16.6719 C1.02837974,16.6719 0.552161093,16.2309 0.552161093,15.7887 L0.552161093,1.4199 C0.552161093,0.9441 1.02837974,0.6045 1.64109035,0.6045 C2.21952765,0.6045 2.69634759,0.9441 2.69634759,1.4199 L2.69634759,2.9823 C3.44555016,1.6575 4.97702605,0.4011 7.22403248,0.4011 C9.47103891,0.4011 11.2412254,1.7937 12.0583733,3.7977 C13.2495212,1.4877 15.257817,0.4011 17.2324408,0.4011 C20.1601032,0.4011 22.9518749,2.7105 22.9518749,6.7527 L22.9518749,15.7887 C22.9518749,16.2309 22.475055,16.6719 21.8280711,16.6719 C21.2490325,16.6719 20.7391418,16.2309 20.7391418,15.7887 L20.7391418,6.7527 C20.7391418,3.8997 18.7302447,2.4387 16.8578395,2.4387 C14.883817,2.4387 12.8749199,4.0695 12.8749199,6.6171 L12.8749199,15.8229 C12.8749199,16.4343 12.2964826,16.6719 11.7517174,16.6719 C11.2412254,16.6719 10.6621868,16.4343 10.6621868,15.8229 L10.6621868,6.6513 Z" id="Fill-17" fill="#FFFFFF" mask="url(#mask-2)"></path>
                    </g>
                    <g id="Group-22" transform="translate(9.019293, 0.294900)">
                        <mask id="mask-4" fill="white">
                            <use xlink:href="#path-3"></use>
                        </mask>
                        <g id="Clip-21"></g>
                        <path d="M5.45943794,16.54662 L5.45943794,8.89962 L5.45943794,6.83202 L5.45943794,3.50022 C5.45943794,1.73562 4.28151833,0.30522 2.82941222,0.30522 C1.37670482,0.30522 0.198785209,1.73562 0.198785209,3.50022 L0.198785209,6.83202 L0.198785209,8.89962 L0.198785209,9.78162 L5.45943794,16.85442 L5.45943794,16.54662 Z" id="Fill-20" fill="#BDBDBD" mask="url(#mask-4)"></path>
                    </g>
                    <path d="M4.96325659,6.78582 C3.91641736,5.36442 2.1185717,4.90722 0.947867524,5.76522 C-0.222836656,6.62382 -0.322650161,8.47242 0.724189068,9.89382 L7.8289865,19.34262 L7.8289865,10.53522 L4.96325659,6.78582 Z" id="Fill-23" fill="#BDBDBD"></path>
                    <path d="M22.9185035,30.6897 L14.4788508,19.4703 L14.0922238,18.9567 L9.21819807,12.4035 L9.21819807,16.8417 L9.21819807,21.2109 L9.21819807,23.2299 L9.21819807,44.5005 C9.21819807,46.2645 10.3961177,47.6949 11.8488251,47.6949 C13.3009312,47.6949 14.4788508,46.2645 14.4788508,44.5005 L14.4788508,28.2135 L18.679436,33.7977 C19.7262752,35.2197 21.5241209,35.6769 22.6948251,34.8183 C23.864928,33.9603 23.9653428,32.1117 22.9185035,30.6897" id="Fill-25" fill="#039BE5"></path>
                </g>
            </g>
        </g>
    </g>
</svg>