<?xml version="1.0" encoding="UTF-8"?>
<svg width="34px" height="36px" viewBox="0 0 34 36" version="1.1" xmlns="http://www.w3.org/2000/svg" xmlns:xlink="http://www.w3.org/1999/xlink">
    <!-- Generator: Sketch 48.2 (47327) - http://www.bohemiancoding.com/sketch -->
    <title>icon/pomodoro-active</title>
    <desc>Created with Sketch.</desc>
    <defs></defs>
    <g id="EMS" stroke="none" stroke-width="1" fill="none" fill-rule="evenodd" transform="translate(-292.000000, -137.000000)">
        <g id="tab" transform="translate(261.000000, 123.000000)">
            <g id="icon/pomodoro-active" transform="translate(31.000000, 14.000000)">
                <g id="stopwatch-(1)">
                    <path d="M28.0094737,8.53822034 L30.2421053,6.32135593" id="Shape" stroke="#424A60" stroke-width="1.26315789" stroke-linecap="round"></path>
                    <rect id="Rectangle-path" fill="#AFB6BB" fill-rule="nonzero" transform="translate(31.135139, 5.434343) rotate(-45.000000) translate(-31.135139, -5.434343) " x="29.2401041" y="3.55300484" width="3.79006892" height="3.76267578"></rect>
                    <path d="M16.3978947,3.76271186 C15,3.5 16.1854737,3.72971186 15,4 L14.7113684,8.15254237 L9.65873684,8.15254237 C9.30947368,8.15254237 9.02715789,8.43286441 9.02715789,8.77966102 C9.02715789,9.12645763 9.30947368,9.40677966 9.65873684,9.40677966 L14.7113684,9.40677966 L14.7113684,12.5423729 L6.50084211,12.5423729 C6.15157895,12.5423729 5.86926316,12.8226949 5.86926316,13.1694915 C5.86926316,13.5162881 6.15157895,13.7966102 6.50084211,13.7966102 L14.7113684,13.7966102 L14.7113684,16.9322034 L3.34294737,16.9322034 C2.99368421,16.9322034 2.71136842,17.2125254 2.71136842,17.559322 C2.71136842,17.9061186 2.99368421,18.1864407 3.34294737,18.1864407 L14.7113684,18.1864407 L14.7113684,21.3220339 L0.816631579,21.3220339 C0.467368421,21.3220339 0.185052632,21.6023559 0.185052632,21.9491525 C0.185052632,22.2959492 0.467368421,22.5762712 0.816631579,22.5762712 L14.7113684,22.5762712 L14.7113684,25.7118644 L4.60610526,25.7118644 C4.25684211,25.7118644 3.97452632,25.9921864 3.97452632,26.3389831 C3.97452632,26.6857797 4.25684211,26.9661017 4.60610526,26.9661017 L14.7113684,26.9661017 C20.9037895,31.9887006 24,34.5 24,34.5 C25,35 33,29.5 32.8189474,20.0677966 C32.6378947,10.6355932 25.4667368,3.76271186 16.3978947,3.76271186 Z" id="Shape" fill="#039BE5" fill-rule="nonzero"></path>
                    <path d="M25.1578947,14.5315932 C24.9381053,14.3146102 24.592,14.2870169 24.3412632,14.4663729 L16.1642105,20.339339 C15.6311579,20.7243898 15.2957895,21.3195254 15.2446316,21.9723559 C15.1934737,22.6251864 15.4315789,23.2642203 15.8970526,23.7264068 C16.3221053,24.1484576 16.8867368,24.3811186 17.4873684,24.3811186 C18.2061053,24.3811186 18.8869474,24.0368305 19.3101053,23.4592542 L25.2235789,15.3418305 C25.4048421,15.0928644 25.3776842,14.7492034 25.1578947,14.5315932 Z" id="Shape" fill="#2B77AA" fill-rule="nonzero"></path>
                    <path d="M24.5263158,13.3532373 C24.3065263,13.1362542 23.9604211,13.108661 23.7096842,13.2880169 L15.5326316,19.1609831 C14.9995789,19.5460339 14.6642105,20.1411695 14.6130526,20.794 C14.5618947,21.4468305 14.8,22.0858644 15.2654737,22.5480508 C15.6905263,22.9707288 16.2551579,23.2033898 16.8551579,23.2033898 C17.5738947,23.2033898 18.2547368,22.8591017 18.6778947,22.2815254 L24.5913684,14.1641017 C24.7732632,13.9145085 24.7461053,13.5708475 24.5263158,13.3532373 Z" id="Shape" fill="#EFCE4A" fill-rule="nonzero"></path>
                    <path d="M15.2376842,3.81538983 C15.6551579,3.7840339 16.0751579,3.76271186 16.5008421,3.76271186 C16.9265263,3.76271186 17.3465263,3.7840339 17.764,3.81538983 L17.764,1.88135593 L19.3429474,1.88135593 C19.8658947,1.88135593 20.2903158,1.4599322 20.2903158,0.940677966 C20.2903158,0.421423729 19.8658947,0 19.3429474,0 L13.6587368,0 C13.1357895,0 12.7113684,0.421423729 12.7113684,0.940677966 C12.7113684,1.4599322 13.1357895,1.88135593 13.6587368,1.88135593 L15.2376842,1.88135593 L15.2376842,3.81538983 Z" id="Shape" fill="#424A60" fill-rule="nonzero"></path>
                    <g id="Group" transform="translate(9.684211, 3.135593)" fill-rule="nonzero">
                        <path d="M6.81663158,0 C6.46736842,0 6.18505263,0.280322034 6.18505263,0.627118644 L6.18505263,2.50847458 C6.18505263,2.85527119 6.46736842,3.13559322 6.81663158,3.13559322 C7.16589474,3.13559322 7.44821053,2.85527119 7.44821053,2.50847458 L7.44821053,0.627118644 C7.44821053,0.280322034 7.16589474,0 6.81663158,0 Z" id="Shape" fill="#A1C8EC"></path>
                        <path d="M23.1347368,16.3050847 L21.24,16.3050847 C20.8907368,16.3050847 20.6084211,16.5854068 20.6084211,16.9322034 C20.6084211,17.279 20.8907368,17.559322 21.24,17.559322 L23.1347368,17.559322 C23.484,17.559322 23.7663158,17.279 23.7663158,16.9322034 C23.7663158,16.5854068 23.484,16.3050847 23.1347368,16.3050847 Z" id="Shape" fill="#A1C8EC"></path>
                        <path d="M10.0766284,31 L3.50957854,31 C3.22778161,31 3,31.27565 3,31.6166667 C3,31.9576833 3.22778161,32.2333333 3.50957854,32.2333333 L10.0766284,32.2333333 C10.3584253,32.2333333 10.5862069,31.9576833 10.5862069,31.6166667 C10.5862069,31.27565 10.3584253,31 10.0766284,31 Z" id="Shape-Copy" fill="#039BE5"></path>
                        <path d="M10.0766284,27 L0.509578544,27 C0.227781609,27 0,27.27565 0,27.6166667 C0,27.9576833 0.227781609,28.2333333 0.509578544,28.2333333 L10.0766284,28.2333333 C10.3584253,28.2333333 10.5862069,27.9576833 10.5862069,27.6166667 C10.5862069,27.27565 10.3584253,27 10.0766284,27 Z" id="Shape-Copy-2" fill="#039BE5"></path>
                        <path d="M15.24,2.26828814 C14.9374737,2.09457627 14.5515789,2.19805085 14.3772632,2.49781356 L13.4298947,4.12769492 C13.2555789,4.42808475 13.3591579,4.81125424 13.6610526,4.98433898 C13.7602105,5.04140678 13.8688421,5.06837288 13.9762105,5.06837288 C14.1947368,5.06837288 14.4069474,4.95549153 14.5237895,4.75481356 L15.4711579,3.1249322 C15.6454737,2.82516949 15.5418947,2.44137288 15.24,2.26828814 Z" id="Shape" fill="#A1C8EC"></path>
                        <path d="M21.2501053,24.541661 L19.6092632,23.6009831 C19.3073684,23.4272712 18.9208421,23.5294915 18.7465263,23.8305085 C18.5722105,24.1308983 18.6757895,24.5140678 18.9776842,24.6871525 L20.6185263,25.6278305 C20.7183158,25.6848983 20.8263158,25.7118644 20.9336842,25.7118644 C21.1522105,25.7118644 21.3644211,25.5996102 21.4812632,25.3983051 C21.6562105,25.0979153 21.5526316,24.7147458 21.2501053,24.541661 Z" id="Shape" fill="#A1C8EC"></path>
                        <path d="M14.5237895,29.1102203 C14.3488421,28.8092034 13.9616842,28.7063559 13.6610526,28.8806949 C13.3585263,29.0537797 13.2549474,29.4375763 13.4298947,29.737339 L14.3772632,31.3665932 C14.4947368,31.5678983 14.7063158,31.6801525 14.9248421,31.6801525 C15.0322105,31.6801525 15.1408421,31.6531864 15.24,31.5961186 C15.5425263,31.4230339 15.6461053,31.0392373 15.4711579,30.7394746 L14.5237895,29.1102203 Z" id="Shape" fill="#A1C8EC"></path>
                        <path d="M19.2947368,10.3474576 C19.4021053,10.3474576 19.5107368,10.3204915 19.6098947,10.2634237 L21.2507368,9.32274576 C21.5532632,9.14966102 21.6568421,8.76586441 21.4818947,8.46610169 C21.3075789,8.16571186 20.9197895,8.06223729 20.6191579,8.23657627 L18.9783158,9.17725424 C18.6757895,9.35033898 18.5722105,9.73350847 18.7471579,10.0338983 C18.864,10.2352034 19.0762105,10.3474576 19.2947368,10.3474576 Z" id="Shape" fill="#A1C8EC"></path>
                    </g>
                    <path d="" id="Path-2" stroke="#979797"></path>
                </g>
            </g>
        </g>
    </g>
</svg>